<?xml version="1.0" standalone="yes"?>
<svg xmlns="http://www.w3.org/2000/svg" width="960" height="960">
<path style="fill:#ffffff; stroke:none;" d="M0 0L0 960L960 960L960 0L0 0z"/>
<path style="fill:#FC60A8; stroke:none;" d="M454 77.4244C430.455 80.5158 407.25 82.3647 384 87.8843C325.461 101.781 269.242 129.966 223 168.435C182.99 201.72 147.19 243.247 123.753 290C97.2074 342.955 81.1437 397.797 77.0895 457C67.0878 603.054 143.75 745.9 267 823.05C302.821 845.473 342.875 862.353 384 872.116C433.285 883.816 484.816 886.317 535 879.718C616.596 868.989 694.772 832.014 755 775.911C830.429 705.646 878.438 605.293 882.961 502C885.163 451.701 879.099 400.9 863.329 353C819.424 219.636 705.648 117.268 569 86.3495C540.709 79.9482 511.951 77 483 77C473.453 77 463.474 76.1804 454 77.4244z"/>
<path style="fill:#55e0e1; stroke:none;" d="M629.667 263.333C629.222 263.778 630.278 263.722 630.333 263.667C630.778 263.222 629.722 263.278 629.667 263.333z"/>
<path style="fill:#c2f4f4; stroke:none;" d="M631 263C632.506 263.683 633.315 263.826 635 264C633.494 263.317 632.685 263.174 631 263z"/>
<path style="fill:#ffffff; stroke:none;" d="M635 263.429C630.416 263.998 624.957 264.264 621.39 267.569C616.303 272.282 615.663 280.584 614.586 287C612.638 298.612 610.446 308.537 600 315.301C595.919 317.944 591.021 320.699 586 320.642C572.545 320.49 559.828 307.992 546 311.419C537.249 313.588 530.417 325.601 529.21 334C527.686 344.597 534.665 350.345 542 356.718C551.461 364.938 560.753 372.212 559.906 386C558.48 409.202 519.948 415.698 531.313 441C532.728 444.15 534.408 447.265 536.529 449.999C549.602 466.85 567.944 449.706 584 448.199C589.342 447.698 594.506 450.258 599 452.877C609.999 459.287 612.445 469.272 614.414 481C615.633 488.265 616.396 497.74 623.043 502.272C628.754 506.167 638.421 505.534 645 504.826C668.706 502.278 657.115 470.075 671.105 457.468C675.91 453.137 683.363 448.47 690 448.144C703.414 447.483 715.401 459.291 729 457.747C739.998 456.498 750.553 437.277 747.347 427C743.528 414.756 727.862 409.062 720.8 398.999C717.017 393.608 716.619 387.391 717.09 381C718.054 367.921 730.048 360.48 738.961 352.424C745.604 346.419 750.286 339.047 746.648 330C745.257 326.54 743.385 323.03 741.211 320C739.26 317.28 736.869 314.525 733.999 312.742C729.604 310.013 723.739 310.914 719 312.156C709.814 314.564 700.654 320.197 691 320.526C686.418 320.683 681.856 318.37 678 316.123C673.085 313.261 668.422 309.31 666.109 304C661.45 293.308 664.28 274.095 653.945 266.703C650.683 264.369 646.824 264.21 643 263.718C640.256 263.365 637.765 263.086 635 263.429z"/>
<path style="fill:#c2f4f4; stroke:none;" d="M641 263C642.248 263.685 642.549 263.749 644 264C642.752 263.315 642.452 263.251 641 263z"/>
<path style="fill:#84e9ea; stroke:none;" d="M644.667 263.333C644.222 263.778 645.278 263.722 645.333 263.667C645.778 263.222 644.722 263.278 644.667 263.333z"/>
<path style="fill:#b2f1f2; stroke:none;" d="M626.667 264.333C626.222 264.778 627.278 264.722 627.333 264.667C627.778 264.222 626.722 264.278 626.667 264.333z"/>
<path style="fill:#a3eeef; stroke:none;" d="M649 264L650 265L649 264z"/>
<path style="fill:#55e0e1; stroke:none;" d="M650 264L651 265L650 264z"/>
<path style="fill:#84e9ea; stroke:none;" d="M652 265L653 266L652 265z"/>
<path style="fill:#b2f1f2; stroke:none;" d="M622 266L623 267L622 266z"/>
<path style="fill:#65e3e4; stroke:none;" d="M654 266L655 267L654 266z"/>
<path style="fill:#a3eeef; stroke:none;" d="M655 267L656 268L655 267z"/>
<path style="fill:#65e3e4; stroke:none;" d="M656 268L657 269L656 268z"/>
<path style="fill:#93ebec; stroke:none;" d="M619 269L620 270L619 269z"/>
<path style="fill:#a3eeef; stroke:none;" d="M618 271L619 272L618 271M658 272L659 273L658 272z"/>
<path style="fill:#84e9ea; stroke:none;" d="M617 273L618 274L617 273z"/>
<path style="fill:#65e3e4; stroke:none;" d="M659 274L660 275L659 274z"/>
<path style="fill:#b2f1f2; stroke:none;" d="M659 275L660 276L659 275z"/>
<path style="fill:#74e6e7; stroke:none;" d="M616 276L617 277L616 276z"/>
<path style="fill:#93ebec; stroke:none;" d="M660.333 277.667C660.278 277.722 660.222 278.778 660.667 278.333C660.722 278.278 660.778 277.222 660.333 277.667z"/>
<path style="fill:#b2f1f2; stroke:none;" d="M615.333 280.667C615.278 280.722 615.222 281.778 615.667 281.333C615.722 281.278 615.778 280.222 615.333 280.667z"/>
<path style="fill:#74e6e7; stroke:none;" d="M661.333 281.667C661.278 281.722 661.222 282.778 661.667 282.333C661.722 282.278 661.778 281.222 661.333 281.667z"/>
<path style="fill:#d1f7f7; stroke:none;" d="M661.333 283.667C661.278 283.722 661.222 284.778 661.667 284.333C661.722 284.278 661.778 283.222 661.333 283.667z"/>
<path style="fill:#a3eeef; stroke:none;" d="M614 285L614 288C614.696 286.446 614.696 286.554 614 285z"/>
<path style="fill:#84e9ea; stroke:none;" d="M662.333 287.667C662.278 287.722 662.222 288.778 662.667 288.333C662.722 288.278 662.778 287.222 662.333 287.667z"/>
<path style="fill:#55e0e1; stroke:none;" d="M613.333 289.667C613.278 289.722 613.222 290.778 613.667 290.333C613.722 290.278 613.778 289.222 613.333 289.667z"/>
<path style="fill:#b2f1f2; stroke:none;" d="M613 291L613 294C613.696 292.446 613.696 292.554 613 291z"/>
<path style="fill:#74e6e7; stroke:none;" d="M663 292L663 295C663.696 293.446 663.696 293.554 663 292M612 295L612 298C612.696 296.446 612.696 296.554 612 295z"/>
<path style="fill:#a3eeef; stroke:none;" d="M664.333 298.667C664.278 298.722 664.222 299.778 664.667 299.333C664.722 299.278 664.778 298.222 664.333 298.667z"/>
<path style="fill:#55e0e1; stroke:none;" d="M611 300L612 301L611 300z"/>
<path style="fill:#74e6e7; stroke:none;" d="M665 302L666 303L665 302z"/>
<path style="fill:#a3eeef; stroke:none;" d="M610 304L611 305L610 304z"/>
<path style="fill:#93ebec; stroke:none;" d="M666 305L667 306L666 305z"/>
<path style="fill:#84e9ea; stroke:none;" d="M609 306L610 307L609 306M667 307L668 308L667 307z"/>
<path style="fill:#b2f1f2; stroke:none;" d="M608 308L609 309L608 308z"/>
<path style="fill:#65e3e4; stroke:none;" d="M607 309L608 310L607 309z"/>
<path style="fill:#46dddf; stroke:none;" d="M546 310C548.332 310.985 550.456 310.981 553 311C550.668 310.015 548.543 310.019 546 310z"/>
<path style="fill:#65e3e4; stroke:none;" d="M606 310L607 311L606 310z"/>
<path style="fill:#46dddf; stroke:none;" d="M724 310C726.052 310.874 727.747 310.953 730 311C727.948 310.126 726.253 310.047 724 310z"/>
<path style="fill:#a3eeef; stroke:none;" d="M544 311L545 312L544 311z"/>
<path style="fill:#93ebec; stroke:none;" d="M554.667 311.333C554.222 311.778 555.278 311.722 555.333 311.667C555.778 311.222 554.722 311.278 554.667 311.333z"/>
<path style="fill:#84e9ea; stroke:none;" d="M605 311L606 312L605 311z"/>
<path style="fill:#93ebec; stroke:none;" d="M720.667 311.333C720.222 311.778 721.278 311.722 721.333 311.667C721.778 311.222 720.722 311.278 720.667 311.333z"/>
<path style="fill:#65e3e4; stroke:none;" d="M732 311L733 312L732 311z"/>
<path style="fill:#84e9ea; stroke:none;" d="M542 312L543 313L542 312M559 312L560 313L559 312z"/>
<path style="fill:#b2f1f2; stroke:none;" d="M604 312L605 313L604 312z"/>
<path style="fill:#65e3e4; stroke:none;" d="M672 312L673 313L672 312z"/>
<path style="fill:#84e9ea; stroke:none;" d="M717 312L718 313L717 312z"/>
<path style="fill:#b2f1f2; stroke:none;" d="M541 313L542 314L541 313z"/>
<path style="fill:#93ebec; stroke:none;" d="M562 313L563 314L562 313z"/>
<path style="fill:#b2f1f2; stroke:none;" d="M673 313L674 314L673 313z"/>
<path style="fill:#93ebec; stroke:none;" d="M714 313L715 314L714 313z"/>
<path style="fill:#65e3e4; stroke:none;" d="M735 313L736 314L735 313z"/>
<path style="fill:#93ebec; stroke:none;" d="M565 314L566 315L565 314z"/>
<path style="fill:#84e9ea; stroke:none;" d="M601 314L602 315L601 314z"/>
<path style="fill:#55e0e1; stroke:none;" d="M675 314L676 315L675 314z"/>
<path style="fill:#74e6e7; stroke:none;" d="M711 314L712 315L711 314z"/>
<path style="fill:#65e3e4; stroke:none;" d="M736 314L737 315L736 314z"/>
<path style="fill:#74e6e7; stroke:none;" d="M568 315L569 316L568 315z"/>
<path style="fill:#b2f1f2; stroke:none;" d="M676 315L677 316L676 315z"/>
<path style="fill:#65e3e4; stroke:none;" d="M708 315L709 316L708 315z"/>
<path style="fill:#b2f1f2; stroke:none;" d="M709 315L710 316L709 315z"/>
<path style="fill:#65e3e4; stroke:none;" d="M737 315L738 316L737 315z"/>
<path style="fill:#b2f1f2; stroke:none;" d="M570 316L571 317L570 316z"/>
<path style="fill:#65e3e4; stroke:none;" d="M571 316L572 317L571 316z"/>
<path style="fill:#a3eeef; stroke:none;" d="M598 316L599 317L598 316z"/>
<path style="fill:#84e9ea; stroke:none;" d="M678 316L679 317L678 316z"/>
<path style="fill:#a3eeef; stroke:none;" d="M706 316L707 317L706 316z"/>
<path style="fill:#65e3e4; stroke:none;" d="M738 316L739 317L738 316z"/>
<path style="fill:#a3eeef; stroke:none;" d="M537 317L538 318L537 317M573 317L574 318L573 317z"/>
<path style="fill:#55e0e1; stroke:none;" d="M574 317L575 318L574 317z"/>
<path style="fill:#84e9ea; stroke:none;" d="M596 317L597 318L596 317M680 317L681 318L680 317z"/>
<path style="fill:#93ebec; stroke:none;" d="M703 317L704 318L703 317z"/>
<path style="fill:#55e0e1; stroke:none;" d="M739 317L740 318L739 317z"/>
<path style="fill:#65e3e4; stroke:none;" d="M536 318L537 319L536 318z"/>
<path style="fill:#a3eeef; stroke:none;" d="M576 318L577 319L576 318z"/>
<path style="fill:#84e9ea; stroke:none;" d="M594 318L595 319L594 318M682 318L683 319L682 318z"/>
<path style="fill:#93ebec; stroke:none;" d="M700 318L701 319L700 318z"/>
<path style="fill:#46dddf; stroke:none;" d="M580.667 319.333C580.222 319.778 581.278 319.722 581.333 319.667C581.778 319.222 580.722 319.278 580.667 319.333z"/>
<path style="fill:#55e0e1; stroke:none;" d="M591 319L592 320L591 319z"/>
<path style="fill:#b2f1f2; stroke:none;" d="M592 319L593 320L592 319z"/>
<path style="fill:#a3eeef; stroke:none;" d="M684 319L685 320L684 319z"/>
<path style="fill:#55e0e1; stroke:none;" d="M685 319L686 320L685 319M696 319L697 320L696 319z"/>
<path style="fill:#b2f1f2; stroke:none;" d="M583.667 320.333C583.222 320.778 584.278 320.722 584.333 320.667C584.778 320.222 583.722 320.278 583.667 320.333z"/>
<path style="fill:#84e9ea; stroke:none;" d="M585 320C586.506 320.683 587.315 320.826 589 321C587.494 320.317 586.685 320.174 585 320M688 320C689.769 320.779 691.036 320.912 693 321C691.231 320.221 689.964 320.088 688 320z"/>
<path style="fill:#93ebec; stroke:none;" d="M741 320L742 321L741 320z"/>
<path style="fill:#84e9ea; stroke:none;" d="M534 321L535 322L534 321M743 323L744 324L743 323z"/>
<path style="fill:#a3eeef; stroke:none;" d="M744 325L745 326L744 325z"/>
<path style="fill:#65e3e4; stroke:none;" d="M531 326L532 327L531 326z"/>
<path style="fill:#a3eeef; stroke:none;" d="M745 327L746 328L745 327M530 329L531 330L530 329z"/>
<path style="fill:#93ebec; stroke:none;" d="M746 329L747 330L746 329z"/>
<path style="fill:#74e6e7; stroke:none;" d="M529 331L530 332L529 331z"/>
<path style="fill:#55e0e1; stroke:none;" d="M747 331L748 332L747 331z"/>
<path style="fill:#84e9ea; stroke:none;" d="M528.333 334.667C528.278 334.722 528.222 335.778 528.667 335.333C528.722 335.278 528.778 334.222 528.333 334.667z"/>
<path style="fill:#c2f4f4; stroke:none;" d="M528 336L528 341C528.83 338.97 528.83 338.031 528 336z"/>
<path style="fill:#84e9ea; stroke:none;" d="M748 336L748 340C748.71 338.241 748.71 337.76 748 336z"/>
<path style="fill:#55e0e1; stroke:none;" d="M528 341L529 342L528 341z"/>
<path style="fill:#b2f1f2; stroke:none;" d="M747 341L748 342L747 341z"/>
<path style="fill:#55e0e1; stroke:none;" d="M390.667 343.333C390.222 343.778 391.278 343.722 391.333 343.667C391.778 343.222 390.722 343.278 390.667 343.333z"/>
<path style="fill:#84e9ea; stroke:none;" d="M392 343C393.248 343.685 393.548 343.749 395 344C393.752 343.315 393.452 343.251 392 343z"/>
<path style="fill:#c2f4f4; stroke:none;" d="M395 343C396.769 343.779 398.036 343.912 400 344C398.231 343.221 396.964 343.088 395 343z"/>
<path style="fill:#84e9ea; stroke:none;" d="M400 343C401.248 343.685 401.548 343.749 403 344C401.752 343.315 401.452 343.251 400 343z"/>
<path style="fill:#46dddf; stroke:none;" d="M403.667 343.333C403.222 343.778 404.278 343.722 404.333 343.667C404.778 343.222 403.722 343.278 403.667 343.333z"/>
<path style="fill:#84e9ea; stroke:none;" d="M529 343L530 344L529 343z"/>
<path style="fill:#a3eeef; stroke:none;" d="M386.667 344.333C386.222 344.778 387.278 344.722 387.333 344.667C387.778 344.222 386.722 344.278 386.667 344.333z"/>
<path style="fill:#ffffff; stroke:none;" d="M388 344.468C379.351 346.145 376.421 353.161 374.665 361C371.996 372.916 372.354 388.336 360.996 395.753C355.165 399.561 345.103 404.29 338 402.359C322.125 398.042 309.311 372.216 291 379.479C287.74 380.772 284.775 382.776 282.004 384.9C279.021 387.186 276.415 389.75 274.483 393.001C268.995 402.236 274.719 411.684 279.231 420C286.588 433.562 292.478 443.647 283.301 458C275.719 469.859 266.679 472.933 253 472.999C244.916 473.038 233.954 471.091 227.213 476.649C221.318 481.509 220.077 491.852 220.004 499C219.794 519.497 243.195 519.087 256.999 527.479C264.292 531.913 267.519 539.802 268.7 548C269.777 555.476 268.626 562.122 263.671 567.985C253.54 579.976 232.058 588.167 238.699 607C239.81 610.152 241.252 613.213 243.105 616C244.975 618.813 247.268 621.554 250.004 623.566C254.534 626.898 260.799 626.345 266 625.101C275.867 622.74 285.731 616.524 296 616.267C302.687 616.099 309.269 620.937 313.999 625.174C318.161 628.901 322.56 633.308 323.66 639C326.561 654.019 311.703 677.135 327.015 688.2C329.71 690.147 332.885 691.448 336 692.561C340.789 694.273 346.931 695.841 351.999 694.581C357.342 693.253 360.997 688.342 363.91 684C369.491 675.686 373.126 665.789 381.004 659.228C387.094 654.156 396.481 654.354 404 655.174C428.198 657.812 426.04 699.549 453 694.192C456.778 693.442 460.515 692.333 464 690.674C479.45 683.318 476.513 664.23 474.575 650C474.029 645.991 472.425 641.012 473.333 637C474.555 631.597 480.987 626.735 485 623.3C488.149 620.605 491.872 617.4 496 616.423C504.646 614.376 514.968 620.834 523 623.279C531.213 625.78 540.638 628.431 547.56 621.671C554.03 615.351 561.178 602.129 556.836 593C550.463 579.603 531.357 574.521 526.804 560C525.198 554.877 526.173 549.075 527.478 544C531.234 529.396 541.963 525.345 555 520.424C561.12 518.113 569.473 515.73 573.258 509.957C576.237 505.412 575.391 497.17 574.711 492C574.219 488.26 573.243 484.354 571.467 481.005C565.52 469.794 549.417 473.417 539 472.961C524.294 472.317 515.744 466.349 509.259 453C502.717 439.532 511.66 428.708 518.139 417C522.172 409.711 525.536 400.696 520.517 393.004C518.961 390.618 517.038 388.499 514.91 386.616C512.209 384.227 509.233 381.993 506 380.378C495.456 375.11 487.1 381.713 479 388.2C472.177 393.664 464.359 402.243 455 402.725C451.321 402.914 447.418 401.522 444 400.302C438.168 398.219 431.67 395.271 428.133 389.96C420.175 378.01 425.379 358.568 414.786 348.228C408.82 342.403 395.653 342.984 388 344.468z"/>
<path style="fill:#74e6e7; stroke:none;" d="M407.667 344.333C407.222 344.778 408.278 344.722 408.333 344.667C408.778 344.222 407.722 344.278 407.667 344.333z"/>
<path style="fill:#65e3e4; stroke:none;" d="M383 345L384 346L383 345z"/>
<path style="fill:#74e6e7; stroke:none;" d="M411 345L412 346L411 345z"/>
<path style="fill:#65e3e4; stroke:none;" d="M745 345L746 346L745 345z"/>
<path style="fill:#74e6e7; stroke:none;" d="M413 346L414 347L413 346M531 346L532 347L531 346z"/>
<path style="fill:#93ebec; stroke:none;" d="M744 346L745 347L744 346z"/>
<path style="fill:#65e3e4; stroke:none;" d="M380 347L381 348L380 347z"/>
<path style="fill:#a3eeef; stroke:none;" d="M414 347L415 348L414 347M532 347L533 348L532 347z"/>
<path style="fill:#b2f1f2; stroke:none;" d="M743 347L744 348L743 347z"/>
<path style="fill:#65e3e4; stroke:none;" d="M379 348L380 349L379 348z"/>
<path style="fill:#a3eeef; stroke:none;" d="M415 348L416 349L415 348z"/>
<path style="fill:#65e3e4; stroke:none;" d="M416 349L417 350L416 349z"/>
<path style="fill:#55e0e1; stroke:none;" d="M377 351L378 352L377 351z"/>
<path style="fill:#a3eeef; stroke:none;" d="M417 351L418 352L417 351z"/>
<path style="fill:#b2f1f2; stroke:none;" d="M536 351L537 352L536 351z"/>
<path style="fill:#a3eeef; stroke:none;" d="M537 352L538 353L537 352M738 352L739 353L738 352z"/>
<path style="fill:#84e9ea; stroke:none;" d="M418 353L419 354L418 353z"/>
<path style="fill:#93ebec; stroke:none;" d="M538 353L539 354L538 353z"/>
<path style="fill:#a3eeef; stroke:none;" d="M737 353L738 354L737 353M376 354L377 355L376 354z"/>
<path style="fill:#65e3e4; stroke:none;" d="M539 354L540 355L539 354z"/>
<path style="fill:#74e6e7; stroke:none;" d="M736 354L737 355L736 354z"/>
<path style="fill:#65e3e4; stroke:none;" d="M735 355L736 356L735 355z"/>
<path style="fill:#93ebec; stroke:none;" d="M375.333 356.667C375.278 356.722 375.222 357.778 375.667 357.333C375.722 357.278 375.778 356.222 375.333 356.667z"/>
<path style="fill:#d1f7f7; stroke:none;" d="M419.333 356.667C419.278 356.722 419.222 357.778 419.667 357.333C419.722 357.278 419.778 356.222 419.333 356.667z"/>
<path style="fill:#c2f4f4; stroke:none;" d="M636 357C637.769 357.779 639.036 357.912 641 358C639.231 357.221 637.964 357.088 636 357z"/>
<path style="fill:#a3eeef; stroke:none;" d="M544 358L545 359L544 358z"/>
<path style="fill:#65e3e4; stroke:none;" d="M631.667 358.333C631.222 358.778 632.278 358.722 632.333 358.667C632.778 358.222 631.722 358.278 631.667 358.333z"/>
<path style="fill:#FC60A8; stroke:none;" d="M633 358.468C613.415 362.163 605.356 387.062 618.329 401.957C624.709 409.281 634.745 411.679 644 409.904C659.797 406.874 668.858 388.812 662.637 374C657.73 362.319 645.317 356.144 633 358.468z"/>
<path style="fill:#c2f4f4; stroke:none;" d="M644.667 358.333C644.222 358.778 645.278 358.722 645.333 358.667C645.778 358.222 644.722 358.278 644.667 358.333z"/>
<path style="fill:#a3eeef; stroke:none;" d="M420.333 359.667C420.278 359.722 420.222 360.778 420.667 360.333C420.722 360.278 420.778 359.222 420.333 359.667z"/>
<path style="fill:#65e3e4; stroke:none;" d="M545 359L546 360L545 359z"/>
<path style="fill:#a3eeef; stroke:none;" d="M628 359L629 360L628 359z"/>
<path style="fill:#65e3e4; stroke:none;" d="M647 359L648 360L647 359z"/>
<path style="fill:#a3eeef; stroke:none;" d="M730 359L731 360L730 359z"/>
<path style="fill:#93ebec; stroke:none;" d="M374.333 360.667C374.278 360.722 374.222 361.778 374.667 361.333C374.722 361.278 374.778 360.222 374.333 360.667z"/>
<path style="fill:#55e0e1; stroke:none;" d="M546 360L547 361L546 360z"/>
<path style="fill:#84e9ea; stroke:none;" d="M626 360L627 361L626 360z"/>
<path style="fill:#74e6e7; stroke:none;" d="M729 360L730 361L729 360z"/>
<path style="fill:#a3eeef; stroke:none;" d="M624 361L625 362L624 361z"/>
<path style="fill:#65e3e4; stroke:none;" d="M728 361L729 362L728 361z"/>
<path style="fill:#93ebec; stroke:none;" d="M653 362L654 363L653 362z"/>
<path style="fill:#55e0e1; stroke:none;" d="M654 363L655 364L654 363z"/>
<path style="fill:#74e6e7; stroke:none;" d="M373.333 364.667C373.278 364.722 373.222 365.778 373.667 365.333C373.722 365.278 373.778 364.222 373.333 364.667z"/>
<path style="fill:#b2f1f2; stroke:none;" d="M421.333 364.667C421.278 364.722 421.222 365.778 421.667 365.333C421.722 365.278 421.778 364.222 421.333 364.667z"/>
<path style="fill:#a3eeef; stroke:none;" d="M551 364L552 365L551 364M620 364L621 365L620 364M552 365L553 366L552 365M619 365L620 366L619 365z"/>
<path style="fill:#c2f4f4; stroke:none;" d="M373.333 366.667C373.278 366.722 373.222 367.778 373.667 367.333C373.722 367.278 373.778 366.222 373.333 366.667z"/>
<path style="fill:#a3eeef; stroke:none;" d="M553 366L554 367L553 366M618 366L619 367L618 366z"/>
<path style="fill:#b2f1f2; stroke:none;" d="M554 367L555 368L554 367z"/>
<path style="fill:#74e6e7; stroke:none;" d="M422 368L422 371C422.696 369.446 422.696 369.554 422 368M659 368L660 369L659 368z"/>
<path style="fill:#65e3e4; stroke:none;" d="M721 368L722 369L721 368z"/>
<path style="fill:#55e0e1; stroke:none;" d="M372.333 369.667C372.278 369.722 372.222 370.778 372.667 370.333C372.722 370.278 372.778 369.222 372.333 369.667z"/>
<path style="fill:#b2f1f2; stroke:none;" d="M660 369L661 370L660 369z"/>
<path style="fill:#93ebec; stroke:none;" d="M720 369L721 370L720 369z"/>
<path style="fill:#74e6e7; stroke:none;" d="M556 370L557 371L556 370z"/>
<path style="fill:#93ebec; stroke:none;" d="M615 370L616 371L615 370z"/>
<path style="fill:#b2f1f2; stroke:none;" d="M372.333 371.667C372.278 371.722 372.222 372.778 372.667 372.333C372.722 372.278 372.778 371.222 372.333 371.667z"/>
<path style="fill:#84e9ea; stroke:none;" d="M661 371L662 372L661 371z"/>
<path style="fill:#65e3e4; stroke:none;" d="M719 371L720 372L719 371z"/>
<path style="fill:#55e0e1; stroke:none;" d="M557 372L558 373L557 372z"/>
<path style="fill:#84e9ea; stroke:none;" d="M614 372L615 373L614 372M662 373L663 374L662 373z"/>
<path style="fill:#74e6e7; stroke:none;" d="M718 373L719 374L718 373z"/>
<path style="fill:#84e9ea; stroke:none;" d="M423 374L423 377C423.696 375.446 423.696 375.554 423 374z"/>
<path style="fill:#65e3e4; stroke:none;" d="M558.333 374.667C558.278 374.722 558.222 375.778 558.667 375.333C558.722 375.278 558.778 374.222 558.333 374.667z"/>
<path style="fill:#a3eeef; stroke:none;" d="M613 374L614 375L613 374z"/>
<path style="fill:#74e6e7; stroke:none;" d="M371.333 375.667C371.278 375.722 371.222 376.778 371.667 376.333C371.722 376.278 371.778 375.222 371.333 375.667z"/>
<path style="fill:#a3eeef; stroke:none;" d="M663 375L664 376L663 375z"/>
<path style="fill:#46dddf; stroke:none;" d="M296 377C297.248 377.685 297.548 377.749 299 378C297.752 377.315 297.452 377.251 296 377z"/>
<path style="fill:#d1f7f7; stroke:none;" d="M371.333 377.667C371.278 377.722 371.222 378.778 371.667 378.333C371.722 378.278 371.778 377.222 371.333 377.667z"/>
<path style="fill:#46dddf; stroke:none;" d="M496 377C497.506 377.683 498.315 377.826 500 378C498.494 377.317 497.685 377.174 496 377z"/>
<path style="fill:#55e0e1; stroke:none;" d="M612.333 377.667C612.278 377.722 612.222 378.778 612.667 378.333C612.722 378.278 612.778 377.222 612.333 377.667z"/>
<path style="fill:#84e9ea; stroke:none;" d="M717.333 377.667C717.278 377.722 717.222 378.778 717.667 378.333C717.722 378.278 717.778 377.222 717.333 377.667z"/>
<path style="fill:#55e0e1; stroke:none;" d="M292 378L293 379L292 378z"/>
<path style="fill:#a3eeef; stroke:none;" d="M293 378L294 379L293 378z"/>
<path style="fill:#93ebec; stroke:none;" d="M301 378L302 379L301 378z"/>
<path style="fill:#65e3e4; stroke:none;" d="M493 378L494 379L493 378z"/>
<path style="fill:#b2f1f2; stroke:none;" d="M494 378L495 379L494 378M501 378L502 379L501 378z"/>
<path style="fill:#65e3e4; stroke:none;" d="M502 378L503 379L502 378z"/>
<path style="fill:#93ebec; stroke:none;" d="M664 378L664 381C664.696 379.446 664.696 379.554 664 378z"/>
<path style="fill:#74e6e7; stroke:none;" d="M290 379L291 380L290 379z"/>
<path style="fill:#b2f1f2; stroke:none;" d="M303 379L304 380L303 379z"/>
<path style="fill:#93ebec; stroke:none;" d="M424.333 379.667C424.278 379.722 424.222 380.778 424.667 380.333C424.722 380.278 424.778 379.222 424.333 379.667z"/>
<path style="fill:#84e9ea; stroke:none;" d="M491 379L492 380L491 379M504 379L505 380L504 379z"/>
<path style="fill:#c2f4f4; stroke:none;" d="M559.333 379.667C559.278 379.722 559.222 380.778 559.667 380.333C559.722 380.278 559.778 379.222 559.333 379.667z"/>
<path style="fill:#46dddf; stroke:none;" d="M717 379L717 382C717.696 380.446 717.696 380.554 717 379z"/>
<path style="fill:#65e3e4; stroke:none;" d="M288 380L289 381L288 380z"/>
<path style="fill:#84e9ea; stroke:none;" d="M370.333 380.667C370.278 380.722 370.222 381.778 370.667 381.333C370.722 381.278 370.778 380.222 370.333 380.667z"/>
<path style="fill:#74e6e7; stroke:none;" d="M489 380L490 381L489 380z"/>
<path style="fill:#84e9ea; stroke:none;" d="M506 380L507 381L506 380M307 381L308 382L307 381M559 381L559 387C559.951 384.715 559.951 383.285 559 381z"/>
<path style="fill:#c2f4f4; stroke:none;" d="M611 381L611 387C611.951 384.715 611.951 383.285 611 381z"/>
<path style="fill:#46dddf; stroke:none;" d="M664 381L664 384C664.696 382.446 664.696 382.554 664 381z"/>
<path style="fill:#93ebec; stroke:none;" d="M285 382L286 383L285 382z"/>
<path style="fill:#84e9ea; stroke:none;" d="M486 382L487 383L486 382z"/>
<path style="fill:#93ebec; stroke:none;" d="M509 382L510 383L509 382z"/>
<path style="fill:#84e9ea; stroke:none;" d="M310 383L311 384L310 383z"/>
<path style="fill:#55e0e1; stroke:none;" d="M425 383L426 384L425 383z"/>
<path style="fill:#65e3e4; stroke:none;" d="M282 384L283 385L282 384M369 384L370 385L369 384z"/>
<path style="fill:#a3eeef; stroke:none;" d="M425 384L426 385L425 384z"/>
<path style="fill:#65e3e4; stroke:none;" d="M512 384L513 385L512 384z"/>
<path style="fill:#a3eeef; stroke:none;" d="M281 385L282 386L281 385z"/>
<path style="fill:#b2f1f2; stroke:none;" d="M369 385L370 386L369 385z"/>
<path style="fill:#84e9ea; stroke:none;" d="M482 385L483 386L482 385z"/>
<path style="fill:#93ebec; stroke:none;" d="M513 385L514 386L513 385z"/>
<path style="fill:#46dddf; stroke:none;" d="M664 385L664 388C664.696 386.446 664.696 386.554 664 385z"/>
<path style="fill:#84e9ea; stroke:none;" d="M314 386L315 387L314 386z"/>
<path style="fill:#55e0e1; stroke:none;" d="M426 386L427 387L426 386z"/>
<path style="fill:#b2f1f2; stroke:none;" d="M481 386L482 387L481 386z"/>
<path style="fill:#a3eeef; stroke:none;" d="M514 386L515 387L514 386z"/>
<path style="fill:#46dddf; stroke:none;" d="M717 386L717 390C717.71 388.24 717.71 387.759 717 386z"/>
<path style="fill:#b2f1f2; stroke:none;" d="M315 387L316 388L315 387z"/>
<path style="fill:#65e3e4; stroke:none;" d="M368 387L369 388L368 387z"/>
<path style="fill:#b2f1f2; stroke:none;" d="M426 387L427 388L426 387z"/>
<path style="fill:#c2f4f4; stroke:none;" d="M559 387L559 390C559.696 388.446 559.696 388.554 559 387z"/>
<path style="fill:#a3eeef; stroke:none;" d="M664.333 388.667C664.278 388.722 664.222 389.778 664.667 389.333C664.722 389.278 664.778 388.222 664.333 388.667z"/>
<path style="fill:#65e3e4; stroke:none;" d="M367 389L368 390L367 389z"/>
<path style="fill:#a3eeef; stroke:none;" d="M427 389L428 390L427 389z"/>
<path style="fill:#65e3e4; stroke:none;" d="M477 389L478 390L477 389z"/>
<path style="fill:#74e6e7; stroke:none;" d="M319 390L320 391L319 390z"/>
<path style="fill:#a3eeef; stroke:none;" d="M476 390L477 391L476 390M518 390L519 391L518 390z"/>
<path style="fill:#65e3e4; stroke:none;" d="M612 390L613 391L612 390z"/>
<path style="fill:#93ebec; stroke:none;" d="M717 390L717 393C717.696 391.446 717.696 391.554 717 390z"/>
<path style="fill:#a3eeef; stroke:none;" d="M275 391L276 392L275 391M320 391L321 392L320 391M366 391L367 392L366 391z"/>
<path style="fill:#84e9ea; stroke:none;" d="M519 391L520 392L519 391z"/>
<path style="fill:#65e3e4; stroke:none;" d="M274 392L275 393L274 392M365 392L366 393L365 392z"/>
<path style="fill:#a3eeef; stroke:none;" d="M429 392L430 393L429 392z"/>
<path style="fill:#55e0e1; stroke:none;" d="M520 392L521 393L520 392z"/>
<path style="fill:#74e6e7; stroke:none;" d="M558.333 392.667C558.278 392.722 558.222 393.778 558.667 393.333C558.722 393.278 558.778 392.222 558.333 392.667M663 392L664 393L663 392z"/>
<path style="fill:#84e9ea; stroke:none;" d="M364 393L365 394L364 393z"/>
<path style="fill:#b2f1f2; stroke:none;" d="M430 393L431 394L430 393z"/>
<path style="fill:#55e0e1; stroke:none;" d="M613 393L614 394L613 393z"/>
<path style="fill:#b2f1f2; stroke:none;" d="M273 394L274 395L273 394z"/>
<path style="fill:#65e3e4; stroke:none;" d="M324 394L325 395L324 394z"/>
<path style="fill:#b2f1f2; stroke:none;" d="M363 394L364 395L363 394z"/>
<path style="fill:#74e6e7; stroke:none;" d="M471 394L472 395L471 394z"/>
<path style="fill:#b2f1f2; stroke:none;" d="M521 394L522 395L521 394M613 394L614 395L613 394z"/>
<path style="fill:#a3eeef; stroke:none;" d="M325 395L326 396L325 395z"/>
<path style="fill:#55e0e1; stroke:none;" d="M361 395L362 396L361 395z"/>
<path style="fill:#84e9ea; stroke:none;" d="M433 395L434 396L433 395z"/>
<path style="fill:#a3eeef; stroke:none;" d="M470 395L471 396L470 395M662 395L663 396L662 395z"/>
<path style="fill:#93ebec; stroke:none;" d="M718 395L719 396L718 395z"/>
<path style="fill:#b2f1f2; stroke:none;" d="M272 396L273 397L272 396z"/>
<path style="fill:#65e3e4; stroke:none;" d="M435 396L436 397L435 396M557 396L558 397L557 396z"/>
<path style="fill:#a3eeef; stroke:none;" d="M614 396L615 397L614 396z"/>
<path style="fill:#65e3e4; stroke:none;" d="M328 397L329 398L328 397z"/>
<path style="fill:#a3eeef; stroke:none;" d="M358 397L359 398L358 397z"/>
<path style="fill:#65e3e4; stroke:none;" d="M437 397L438 398L437 397z"/>
<path style="fill:#74e6e7; stroke:none;" d="M467 397L468 398L467 397z"/>
<path style="fill:#a3eeef; stroke:none;" d="M661 397L662 398L661 397z"/>
<path style="fill:#84e9ea; stroke:none;" d="M719 397L720 398L719 397z"/>
<path style="fill:#46dddf; stroke:none;" d="M271 398L271 403C271.83 400.97 271.83 400.031 271 398z"/>
<path style="fill:#b2f1f2; stroke:none;" d="M329 398L330 399L329 398z"/>
<path style="fill:#a3eeef; stroke:none;" d="M356 398L357 399L356 398z"/>
<path style="fill:#74e6e7; stroke:none;" d="M439 398L440 399L439 398z"/>
<path style="fill:#b2f1f2; stroke:none;" d="M466 398L467 399L466 398z"/>
<path style="fill:#c2f4f4; stroke:none;" d="M523 398L523 403C523.83 400.97 523.83 400.03 523 398z"/>
<path style="fill:#93ebec; stroke:none;" d="M556 398L557 399L556 398z"/>
<path style="fill:#65e3e4; stroke:none;" d="M331 399L332 400L331 399z"/>
<path style="fill:#55e0e1; stroke:none;" d="M353 399L354 400L353 399z"/>
<path style="fill:#a3eeef; stroke:none;" d="M441 399L442 400L441 399z"/>
<path style="fill:#74e6e7; stroke:none;" d="M464 399L465 400L464 399z"/>
<path style="fill:#55e0e1; stroke:none;" d="M555 399L556 400L555 399z"/>
<path style="fill:#74e6e7; stroke:none;" d="M616 399L617 400L616 399z"/>
<path style="fill:#93ebec; stroke:none;" d="M351 400L352 401L351 400M444 400L445 401L444 400z"/>
<path style="fill:#a3eeef; stroke:none;" d="M659 400L660 401L659 400M721 400L722 401L721 400z"/>
<path style="fill:#55e0e1; stroke:none;" d="M335 401L336 402L335 401M347 401L348 402L347 401z"/>
<path style="fill:#65e3e4; stroke:none;" d="M447.667 401.333C447.222 401.778 448.278 401.722 448.333 401.667C448.778 401.222 447.722 401.278 447.667 401.333M460 401L461 402L460 401z"/>
<path style="fill:#74e6e7; stroke:none;" d="M658 401L659 402L658 401z"/>
<path style="fill:#a3eeef; stroke:none;" d="M722 401L723 402L722 401z"/>
<path style="fill:#46dddf; stroke:none;" d="M337 402C339.052 402.874 340.747 402.953 343 403C340.948 402.126 339.253 402.047 337 402z"/>
<path style="fill:#a3eeef; stroke:none;" d="M343.667 402.333C343.222 402.778 344.278 402.722 344.333 402.667C344.778 402.222 343.722 402.278 343.667 402.333z"/>
<path style="fill:#93ebec; stroke:none;" d="M451 402C452.506 402.683 453.315 402.826 455 403C453.494 402.317 452.685 402.174 451 402z"/>
<path style="fill:#65e3e4; stroke:none;" d="M455 402C456.248 402.685 456.548 402.749 458 403C456.752 402.315 456.452 402.251 455 402M657 402L658 403L657 402z"/>
<path style="fill:#a3eeef; stroke:none;" d="M723 402L724 403L723 402z"/>
<path style="fill:#65e3e4; stroke:none;" d="M523.333 403.667C523.278 403.722 523.222 404.778 523.667 404.333C523.722 404.278 523.778 403.222 523.333 403.667M656 403L657 404L656 403z"/>
<path style="fill:#a3eeef; stroke:none;" d="M724 403L725 404L724 403z"/>
<path style="fill:#65e3e4; stroke:none;" d="M655 404L656 405L655 404z"/>
<path style="fill:#a3eeef; stroke:none;" d="M725 404L726 405L725 404z"/>
<path style="fill:#93ebec; stroke:none;" d="M272 405L273 406L272 405z"/>
<path style="fill:#a3eeef; stroke:none;" d="M654 405L655 406L654 405M726 405L727 406L726 405z"/>
<path style="fill:#55e0e1; stroke:none;" d="M548 406L549 407L548 406z"/>
<path style="fill:#93ebec; stroke:none;" d="M623 406L624 407L623 406M522 407L523 408L522 407z"/>
<path style="fill:#65e3e4; stroke:none;" d="M547 407L548 408L547 407M625 407L626 408L625 407z"/>
<path style="fill:#a3eeef; stroke:none;" d="M651 407L652 408L651 407z"/>
<path style="fill:#84e9ea; stroke:none;" d="M273 408L274 409L273 408z"/>
<path style="fill:#a3eeef; stroke:none;" d="M546 408L547 409L546 408z"/>
<path style="fill:#65e3e4; stroke:none;" d="M627 408L628 409L627 408z"/>
<path style="fill:#93ebec; stroke:none;" d="M649 408L650 409L649 408M629 409L630 410L629 409z"/>
<path style="fill:#65e3e4; stroke:none;" d="M646 409L647 410L646 409z"/>
<path style="fill:#b2f1f2; stroke:none;" d="M647 409L648 410L647 409z"/>
<path style="fill:#65e3e4; stroke:none;" d="M731 409L732 410L731 409z"/>
<path style="fill:#a3eeef; stroke:none;" d="M274 410L275 411L274 410z"/>
<path style="fill:#55e0e1; stroke:none;" d="M521 410L522 411L521 410z"/>
<path style="fill:#84e9ea; stroke:none;" d="M632.667 410.333C632.222 410.778 633.278 410.722 633.333 410.667C633.778 410.222 632.722 410.278 632.667 410.333z"/>
<path style="fill:#46dddf; stroke:none;" d="M634.667 410.333C634.222 410.778 635.278 410.722 635.333 410.667C635.778 410.222 634.722 410.278 634.667 410.333M640 410C641.248 410.685 641.548 410.749 643 411C641.752 410.315 641.451 410.251 640 410z"/>
<path style="fill:#d1f7f7; stroke:none;" d="M643.667 410.333C643.222 410.778 644.278 410.722 644.333 410.667C644.778 410.222 643.722 410.278 643.667 410.333z"/>
<path style="fill:#93ebec; stroke:none;" d="M732 410L733 411L732 410z"/>
<path style="fill:#b2f1f2; stroke:none;" d="M733 411L734 412L733 411z"/>
<path style="fill:#65e3e4; stroke:none;" d="M520 412L521 413L520 412M541 412L542 413L541 412z"/>
<path style="fill:#a3eeef; stroke:none;" d="M540 413L541 414L540 413z"/>
<path style="fill:#65e3e4; stroke:none;" d="M519 414L520 415L519 414z"/>
<path style="fill:#b2f1f2; stroke:none;" d="M539 414L540 415L539 414z"/>
<path style="fill:#65e3e4; stroke:none;" d="M737 414L738 415L737 414M738 415L739 416L738 415z"/>
<path style="fill:#a3eeef; stroke:none;" d="M277 416L278 417L277 416z"/>
<path style="fill:#55e0e1; stroke:none;" d="M518 416L519 417L518 416z"/>
<path style="fill:#a3eeef; stroke:none;" d="M739 416L740 417L739 416M740 417L741 418L740 417z"/>
<path style="fill:#93ebec; stroke:none;" d="M278 418L279 419L278 418z"/>
<path style="fill:#a3eeef; stroke:none;" d="M741 418L742 419L741 418M516 419L517 420L516 419M742 419L743 420L742 419z"/>
<path style="fill:#84e9ea; stroke:none;" d="M279 420L280 421L279 420z"/>
<path style="fill:#a3eeef; stroke:none;" d="M743 420L744 421L743 420z"/>
<path style="fill:#84e9ea; stroke:none;" d="M515 421L516 422L515 421z"/>
<path style="fill:#65e3e4; stroke:none;" d="M744 421L745 422L744 421M280 422L281 423L280 422z"/>
<path style="fill:#b2f1f2; stroke:none;" d="M531 422L532 423L531 422z"/>
<path style="fill:#65e3e4; stroke:none;" d="M514 423L515 424L514 423z"/>
<path style="fill:#74e6e7; stroke:none;" d="M530 423L531 424L530 423z"/>
<path style="fill:#a3eeef; stroke:none;" d="M746 424L747 425L746 424z"/>
<path style="fill:#b2f1f2; stroke:none;" d="M282 425L283 426L282 425z"/>
<path style="fill:#a3eeef; stroke:none;" d="M529 425L530 426L529 425M512 426L513 427L512 426M747 426L748 427L747 426M283 427L284 428L283 427z"/>
<path style="fill:#c2f4f4; stroke:none;" d="M528 427L528 432C528.83 429.97 528.83 429.03 528 427z"/>
<path style="fill:#84e9ea; stroke:none;" d="M511 428L512 429L511 428z"/>
<path style="fill:#46dddf; stroke:none;" d="M748 428L748 433C748.83 430.97 748.83 430.03 748 428z"/>
<path style="fill:#84e9ea; stroke:none;" d="M284 429L285 430L284 429M510 430L511 431L510 430M285 431L286 432L285 431M509 432L510 433L509 432M528.333 432.667C528.278 432.722 528.222 433.778 528.667 433.333C528.722 433.278 528.778 432.222 528.333 432.667z"/>
<path style="fill:#a3eeef; stroke:none;" d="M286 433L287 434L286 433z"/>
<path style="fill:#93ebec; stroke:none;" d="M508 434L509 435L508 434M747 435L748 436L747 435z"/>
<path style="fill:#65e3e4; stroke:none;" d="M287 436L288 437L287 436z"/>
<path style="fill:#b2f1f2; stroke:none;" d="M529 436L530 437L529 436z"/>
<path style="fill:#65e3e4; stroke:none;" d="M507 437L508 438L507 437M529 437L530 438L529 437z"/>
<path style="fill:#84e9ea; stroke:none;" d="M746 438L747 439L746 438z"/>
<path style="fill:#46dddf; stroke:none;" d="M288.333 439.667C288.278 439.722 288.222 440.778 288.667 440.333C288.722 440.278 288.778 439.222 288.333 439.667z"/>
<path style="fill:#93ebec; stroke:none;" d="M530 439L531 440L530 439z"/>
<path style="fill:#46dddf; stroke:none;" d="M506 440L506 445C506.83 442.969 506.83 442.03 506 440z"/>
<path style="fill:#a3eeef; stroke:none;" d="M745 440L746 441L745 440M531 441L532 442L531 441M532 443L533 444L532 443M743 444L744 445L743 444z"/>
<path style="fill:#c2f4f4; stroke:none;" d="M506.333 445.667C506.278 445.722 506.222 446.778 506.667 446.333C506.722 446.278 506.778 445.222 506.333 445.667z"/>
<path style="fill:#84e9ea; stroke:none;" d="M533 445L534 446L533 445z"/>
<path style="fill:#c2f4f4; stroke:none;" d="M288.333 446.667C288.278 446.722 288.222 447.778 288.667 447.333C288.722 447.278 288.778 446.222 288.333 446.667z"/>
<path style="fill:#84e9ea; stroke:none;" d="M742 446L743 447L742 446z"/>
<path style="fill:#55e0e1; stroke:none;" d="M507 448L508 449L507 448z"/>
<path style="fill:#93ebec; stroke:none;" d="M535 448L536 449L535 448z"/>
<path style="fill:#84e9ea; stroke:none;" d="M581.667 448.333C581.222 448.778 582.278 448.722 582.333 448.667C582.778 448.222 581.722 448.278 581.667 448.333z"/>
<path style="fill:#46dddf; stroke:none;" d="M583.667 448.333C583.222 448.778 584.278 448.722 584.333 448.667C584.778 448.222 583.722 448.278 583.667 448.333z"/>
<path style="fill:#84e9ea; stroke:none;" d="M589 448L590 449L589 448z"/>
<path style="fill:#b2f1f2; stroke:none;" d="M686 448L687 449L686 448z"/>
<path style="fill:#46dddf; stroke:none;" d="M687.667 448.333C687.222 448.778 688.278 448.722 688.333 448.667C688.778 448.222 687.722 448.278 687.667 448.333z"/>
<path style="fill:#65e3e4; stroke:none;" d="M692 448C693.248 448.685 693.548 448.749 695 449C693.752 448.315 693.452 448.251 692 448M287 449L288 450L287 449z"/>
<path style="fill:#b2f1f2; stroke:none;" d="M507 449L508 450L507 449z"/>
<path style="fill:#36dadc; stroke:none;" d="M578.667 449.333C578.222 449.778 579.278 449.722 579.333 449.667C579.778 449.222 578.722 449.278 578.667 449.333z"/>
<path style="fill:#84e9ea; stroke:none;" d="M592 449L593 450L592 449z"/>
<path style="fill:#65e3e4; stroke:none;" d="M684 449L685 450L684 449z"/>
<path style="fill:#93ebec; stroke:none;" d="M697.667 449.333C697.223 449.777 698.278 449.722 698.333 449.667C698.778 449.222 697.722 449.278 697.667 449.333z"/>
<path style="fill:#74e6e7; stroke:none;" d="M740 449L741 450L740 449z"/>
<path style="fill:#b2f1f2; stroke:none;" d="M574 450L575 451L574 450z"/>
<path style="fill:#65e3e4; stroke:none;" d="M575 450L576 451L575 450M594 450L595 451L594 450z"/>
<path style="fill:#a3eeef; stroke:none;" d="M681 450L682 451L681 450z"/>
<path style="fill:#93ebec; stroke:none;" d="M701 450L702 451L701 450z"/>
<path style="fill:#b2f1f2; stroke:none;" d="M739 450L740 451L739 450z"/>
<path style="fill:#84e9ea; stroke:none;" d="M508 451L509 452L508 451z"/>
<path style="fill:#65e3e4; stroke:none;" d="M537 451L538 452L537 451M572 451L573 452L572 451M596 451L597 452L596 451z"/>
<path style="fill:#a3eeef; stroke:none;" d="M679 451L680 452L679 451M704 451L705 452L704 451M286 452L287 453L286 452z"/>
<path style="fill:#84e9ea; stroke:none;" d="M538 452L539 453L538 452M569 452L570 453L569 452z"/>
<path style="fill:#74e6e7; stroke:none;" d="M598 452L599 453L598 452z"/>
<path style="fill:#55e0e1; stroke:none;" d="M706 452L707 453L706 452z"/>
<path style="fill:#b2f1f2; stroke:none;" d="M707 452L708 453L707 452z"/>
<path style="fill:#65e3e4; stroke:none;" d="M509 453L510 454L509 453z"/>
<path style="fill:#a3eeef; stroke:none;" d="M539 453L540 454L539 453M566 453L567 454L566 453M600 453L601 454L600 453z"/>
<path style="fill:#65e3e4; stroke:none;" d="M676 453L677 454L676 453z"/>
<path style="fill:#74e6e7; stroke:none;" d="M709 453L710 454L709 453z"/>
<path style="fill:#a3eeef; stroke:none;" d="M285 454L286 455L285 454M540 454L541 455L540 454z"/>
<path style="fill:#b2f1f2; stroke:none;" d="M563 454L564 455L563 454z"/>
<path style="fill:#65e3e4; stroke:none;" d="M564 454L565 455L564 454z"/>
<path style="fill:#b2f1f2; stroke:none;" d="M674 454L675 455L674 454z"/>
<path style="fill:#93ebec; stroke:none;" d="M712 454L713 455L712 454z"/>
<path style="fill:#65e3e4; stroke:none;" d="M510 455L511 456L510 455M541 455L542 456L541 455z"/>
<path style="fill:#b2f1f2; stroke:none;" d="M560 455L561 456L560 455z"/>
<path style="fill:#65e3e4; stroke:none;" d="M561 455L562 456L561 455z"/>
<path style="fill:#b2f1f2; stroke:none;" d="M603 455L604 456L603 455z"/>
<path style="fill:#55e0e1; stroke:none;" d="M673 455L674 456L673 455z"/>
<path style="fill:#93ebec; stroke:none;" d="M715 455L716 456L715 455z"/>
<path style="fill:#a3eeef; stroke:none;" d="M284 456L285 457L284 456z"/>
<path style="fill:#65e3e4; stroke:none;" d="M557.667 456.333C557.222 456.778 558.278 456.722 558.333 456.667C558.778 456.222 557.722 456.278 557.667 456.333z"/>
<path style="fill:#74e6e7; stroke:none;" d="M604 456L605 457L604 456z"/>
<path style="fill:#c2f4f4; stroke:none;" d="M718.667 456.333C718.222 456.778 719.278 456.722 719.333 456.667C719.778 456.222 718.722 456.278 718.667 456.333z"/>
<path style="fill:#84e9ea; stroke:none;" d="M733 456L734 457L733 456M511 457L512 458L511 457z"/>
<path style="fill:#d1f7f7; stroke:none;" d="M545.667 457.333C545.222 457.778 546.278 457.722 546.333 457.667C546.778 457.222 545.722 457.278 545.667 457.333z"/>
<path style="fill:#93ebec; stroke:none;" d="M552 457C553.248 457.685 553.548 457.749 555 458C553.752 457.315 553.452 457.251 552 457z"/>
<path style="fill:#b2f1f2; stroke:none;" d="M670 457L671 458L670 457M722 457C723.248 457.685 723.548 457.749 725 458C723.752 457.315 723.452 457.251 722 457z"/>
<path style="fill:#74e6e7; stroke:none;" d="M731 457L732 458L731 457z"/>
<path style="fill:#a3eeef; stroke:none;" d="M669 458L670 459L669 458z"/>
<path style="fill:#74e6e7; stroke:none;" d="M282 459L283 460L282 459z"/>
<path style="fill:#b2f1f2; stroke:none;" d="M512 459L513 460L512 459M668 459L669 460L668 459z"/>
<path style="fill:#55e0e1; stroke:none;" d="M513 460L514 461L513 460z"/>
<path style="fill:#74e6e7; stroke:none;" d="M608 460L609 461L608 460z"/>
<path style="fill:#65e3e4; stroke:none;" d="M667 461L668 462L667 461z"/>
<path style="fill:#74e6e7; stroke:none;" d="M280 462L281 463L280 462z"/>
<path style="fill:#b2f1f2; stroke:none;" d="M514 462L515 463L514 462z"/>
<path style="fill:#55e0e1; stroke:none;" d="M609 462L610 463L609 462z"/>
<path style="fill:#74e6e7; stroke:none;" d="M515 463L516 464L515 463z"/>
<path style="fill:#65e3e4; stroke:none;" d="M666 463L667 464L666 463z"/>
<path style="fill:#74e6e7; stroke:none;" d="M610 464L611 465L610 464z"/>
<path style="fill:#b2f1f2; stroke:none;" d="M665 465L666 466L665 465z"/>
<path style="fill:#a3eeef; stroke:none;" d="M277 466L278 467L277 466z"/>
<path style="fill:#65e3e4; stroke:none;" d="M665 466L666 467L665 466z"/>
<path style="fill:#a3eeef; stroke:none;" d="M276 467L277 468L276 467z"/>
<path style="fill:#93ebec; stroke:none;" d="M611 467L612 468L611 467z"/>
<path style="fill:#74e6e7; stroke:none;" d="M273 469L274 470L273 469z"/>
<path style="fill:#93ebec; stroke:none;" d="M521 469L522 470L521 469z"/>
<path style="fill:#55e0e1; stroke:none;" d="M664.333 469.667C664.278 469.722 664.222 470.778 664.667 470.333C664.722 470.278 664.778 469.222 664.333 469.667z"/>
<path style="fill:#93ebec; stroke:none;" d="M271 470L272 471L271 470z"/>
<path style="fill:#a3eeef; stroke:none;" d="M523 470L524 471L523 470z"/>
<path style="fill:#55e0e1; stroke:none;" d="M524 470L525 471L524 470z"/>
<path style="fill:#93ebec; stroke:none;" d="M612 470L612 473C612.696 471.446 612.696 471.554 612 470z"/>
<path style="fill:#46dddf; stroke:none;" d="M264 471C265.248 471.685 265.548 471.749 267 472C265.752 471.315 265.452 471.251 264 471z"/>
<path style="fill:#c2f4f4; stroke:none;" d="M267.667 471.333C267.222 471.778 268.278 471.722 268.333 471.667C268.778 471.222 267.722 471.278 267.667 471.333z"/>
<path style="fill:#93ebec; stroke:none;" d="M526 471C527.248 471.685 527.548 471.749 529 472C527.752 471.315 527.452 471.251 526 471z"/>
<path style="fill:#36dadc; stroke:none;" d="M529.667 471.333C529.222 471.778 530.278 471.722 530.333 471.667C530.778 471.222 529.722 471.278 529.667 471.333z"/>
<path style="fill:#46dddf; stroke:none;" d="M237.667 472.333C237.222 472.778 238.278 472.722 238.333 472.667C238.778 472.222 237.722 472.278 237.667 472.333z"/>
<path style="fill:#84e9ea; stroke:none;" d="M239 472C240.769 472.779 242.036 472.912 244 473C242.231 472.221 240.964 472.088 239 472z"/>
<path style="fill:#c2f4f4; stroke:none;" d="M244 472C248.974 474.087 255.638 473 261 473C256.026 470.913 249.362 472 244 472M534 472C538.974 474.087 545.638 473 551 473C546.026 470.913 539.362 472 534 472z"/>
<path style="fill:#84e9ea; stroke:none;" d="M551 472C552.769 472.779 554.036 472.912 556 473C554.231 472.221 552.964 472.088 551 472z"/>
<path style="fill:#46dddf; stroke:none;" d="M556.667 472.333C556.222 472.778 557.278 472.722 557.333 472.667C557.778 472.222 556.722 472.278 556.667 472.333z"/>
<path style="fill:#84e9ea; stroke:none;" d="M232.667 473.333C232.222 473.778 233.278 473.722 233.333 473.667C233.778 473.222 232.722 473.278 232.667 473.333z"/>
<path style="fill:#93ebec; stroke:none;" d="M560 473C561.248 473.685 561.548 473.749 563 474C561.752 473.315 561.451 473.251 560 473z"/>
<path style="fill:#a3eeef; stroke:none;" d="M230 474L231 475L230 474z"/>
<path style="fill:#b2f1f2; stroke:none;" d="M564 474L565 475L564 474z"/>
<path style="fill:#65e3e4; stroke:none;" d="M565 474L566 475L565 474z"/>
<path style="fill:#55e0e1; stroke:none;" d="M663 474L663 477C663.696 475.446 663.696 475.554 663 474z"/>
<path style="fill:#b2f1f2; stroke:none;" d="M228 475L229 476L228 475z"/>
<path style="fill:#a3eeef; stroke:none;" d="M613 475L613 478C613.696 476.446 613.696 476.554 613 475z"/>
<path style="fill:#65e3e4; stroke:none;" d="M568 476L569 477L568 476M569 477L570 478L569 477z"/>
<path style="fill:#84e9ea; stroke:none;" d="M224 479L225 480L224 479M662.333 479.667C662.278 479.722 662.222 480.778 662.667 480.333C662.722 480.278 662.778 479.222 662.333 479.667z"/>
<path style="fill:#65e3e4; stroke:none;" d="M571 480L572 481L571 480z"/>
<path style="fill:#93ebec; stroke:none;" d="M223 481L224 482L223 481M614 481L614 484C614.696 482.446 614.696 482.554 614 481z"/>
<path style="fill:#65e3e4; stroke:none;" d="M222 483L223 484L222 483z"/>
<path style="fill:#a3eeef; stroke:none;" d="M572 483L573 484L572 483z"/>
<path style="fill:#93ebec; stroke:none;" d="M661 484L661 487C661.696 485.446 661.696 485.554 661 484z"/>
<path style="fill:#65e3e4; stroke:none;" d="M573 485L574 486L573 485z"/>
<path style="fill:#b2f1f2; stroke:none;" d="M221.333 486.667C221.278 486.722 221.222 487.778 221.667 487.333C221.722 487.278 221.778 486.222 221.333 486.667z"/>
<path style="fill:#93ebec; stroke:none;" d="M390 486C391.248 486.685 391.548 486.749 393 487C391.752 486.315 391.452 486.251 390 486z"/>
<path style="fill:#46dddf; stroke:none;" d="M393 486C394.248 486.685 394.548 486.749 396 487C394.752 486.315 394.452 486.251 393 486z"/>
<path style="fill:#FC60A8; stroke:none;" d="M396 486.515C385.827 487.203 376.039 491.09 369.329 499.015C354.869 516.091 359.271 544.682 379 555.651C386.326 559.724 394.757 560.572 403 559.907C440.567 556.873 445.19 500.868 411 488.7C406.394 487.061 400.893 486.184 396 486.515z"/>
<path style="fill:#46dddf; stroke:none;" d="M399 486C400.248 486.685 400.548 486.749 402 487C400.752 486.315 400.452 486.251 399 486z"/>
<path style="fill:#84e9ea; stroke:none;" d="M402.667 486.333C402.222 486.778 403.278 486.722 403.333 486.667C403.778 486.222 402.722 486.278 402.667 486.333z"/>
<path style="fill:#46dddf; stroke:none;" d="M387.667 487.333C387.222 487.778 388.278 487.722 388.333 487.667C388.778 487.222 387.722 487.278 387.667 487.333z"/>
<path style="fill:#b2f1f2; stroke:none;" d="M407.667 487.333C407.222 487.778 408.278 487.722 408.333 487.667C408.778 487.222 407.722 487.278 407.667 487.333z"/>
<path style="fill:#74e6e7; stroke:none;" d="M615.333 487.667C615.278 487.722 615.222 488.778 615.667 488.333C615.722 488.278 615.778 487.222 615.333 487.667z"/>
<path style="fill:#84e9ea; stroke:none;" d="M384 488L385 489L384 488z"/>
<path style="fill:#65e3e4; stroke:none;" d="M410 488L411 489L410 488z"/>
<path style="fill:#55e0e1; stroke:none;" d="M382 489L383 490L382 489z"/>
<path style="fill:#a3eeef; stroke:none;" d="M413 489L414 490L413 489z"/>
<path style="fill:#b2f1f2; stroke:none;" d="M574.333 489.667C574.278 489.722 574.222 490.778 574.667 490.333C574.722 490.278 574.778 489.222 574.333 489.667z"/>
<path style="fill:#a3eeef; stroke:none;" d="M220 490L220 493C220.696 491.446 220.696 491.554 220 490z"/>
<path style="fill:#b2f1f2; stroke:none;" d="M415 490L416 491L415 490z"/>
<path style="fill:#84e9ea; stroke:none;" d="M660 490L661 491L660 490z"/>
<path style="fill:#74e6e7; stroke:none;" d="M378 491L379 492L378 491z"/>
<path style="fill:#b2f1f2; stroke:none;" d="M616 491L617 492L616 491M376 492L377 493L376 492z"/>
<path style="fill:#84e9ea; stroke:none;" d="M418 492L419 493L418 492z"/>
<path style="fill:#74e6e7; stroke:none;" d="M375 493L376 494L375 493z"/>
<path style="fill:#55e0e1; stroke:none;" d="M575.333 493.667C575.278 493.722 575.222 494.778 575.667 494.333C575.722 494.278 575.778 493.222 575.333 493.667z"/>
<path style="fill:#a3eeef; stroke:none;" d="M659 493L660 494L659 493z"/>
<path style="fill:#55e0e1; stroke:none;" d="M659 494L660 495L659 494z"/>
<path style="fill:#46dddf; stroke:none;" d="M219 495L219 498C219.696 496.446 219.696 496.554 219 495z"/>
<path style="fill:#a3eeef; stroke:none;" d="M422 495L423 496L422 495z"/>
<path style="fill:#84e9ea; stroke:none;" d="M575.333 495.667C575.278 495.722 575.222 496.778 575.667 496.333C575.722 496.278 575.778 495.222 575.333 495.667z"/>
<path style="fill:#65e3e4; stroke:none;" d="M617 495L618 496L617 495z"/>
<path style="fill:#a3eeef; stroke:none;" d="M423 496L424 497L423 496z"/>
<path style="fill:#84e9ea; stroke:none;" d="M658 496L659 497L658 496z"/>
<path style="fill:#a3eeef; stroke:none;" d="M424 497L425 498L424 497z"/>
<path style="fill:#c2f4f4; stroke:none;" d="M575 497L575 503C575.951 500.715 575.951 499.285 575 497z"/>
<path style="fill:#84e9ea; stroke:none;" d="M618 497L619 498L618 497M219 498L219 503C219.83 500.969 219.83 500.03 219 498z"/>
<path style="fill:#a3eeef; stroke:none;" d="M425 498L426 499L425 498z"/>
<path style="fill:#84e9ea; stroke:none;" d="M657 498L658 499L657 498z"/>
<path style="fill:#55e0e1; stroke:none;" d="M619 499L620 500L619 499z"/>
<path style="fill:#a3eeef; stroke:none;" d="M620 500L621 501L620 500z"/>
<path style="fill:#84e9ea; stroke:none;" d="M367 501L368 502L367 501z"/>
<path style="fill:#a3eeef; stroke:none;" d="M621 501L622 502L621 501z"/>
<path style="fill:#84e9ea; stroke:none;" d="M428 502L429 503L428 502z"/>
<path style="fill:#65e3e4; stroke:none;" d="M622 502L623 503L622 502z"/>
<path style="fill:#46dddf; stroke:none;" d="M219.333 503.667C219.278 503.722 219.222 504.778 219.667 504.333C219.722 504.278 219.778 503.222 219.333 503.667z"/>
<path style="fill:#84e9ea; stroke:none;" d="M575 503L575 506C575.696 504.446 575.696 504.554 575 503z"/>
<path style="fill:#65e3e4; stroke:none;" d="M624 503L625 504L624 503z"/>
<path style="fill:#a3eeef; stroke:none;" d="M651 503L652 504L651 503z"/>
<path style="fill:#84e9ea; stroke:none;" d="M365 504L366 505L365 504z"/>
<path style="fill:#b2f1f2; stroke:none;" d="M627.667 504.333C627.222 504.778 628.278 504.722 628.333 504.667C628.778 504.222 627.722 504.278 627.667 504.333z"/>
<path style="fill:#93ebec; stroke:none;" d="M647 504C648.248 504.685 648.548 504.749 650 505C648.752 504.315 648.452 504.251 647 504z"/>
<path style="fill:#b2f1f2; stroke:none;" d="M430 505L431 506L430 505z"/>
<path style="fill:#46dddf; stroke:none;" d="M631.667 505.333C631.222 505.778 632.278 505.722 632.333 505.667C632.778 505.222 631.722 505.278 631.667 505.333z"/>
<path style="fill:#84e9ea; stroke:none;" d="M633 505C634.506 505.683 635.315 505.826 637 506C635.494 505.317 634.685 505.174 633 505z"/>
<path style="fill:#c2f4f4; stroke:none;" d="M637 505C638.248 505.685 638.549 505.749 640 506C638.752 505.315 638.452 505.251 637 505z"/>
<path style="fill:#84e9ea; stroke:none;" d="M640 505C641.248 505.685 641.548 505.749 643 506C641.752 505.315 641.451 505.251 640 505z"/>
<path style="fill:#46dddf; stroke:none;" d="M643 505C644.248 505.685 644.548 505.749 646 506C644.752 505.315 644.452 505.251 643 505z"/>
<path style="fill:#65e3e4; stroke:none;" d="M364 506L365 507L364 506z"/>
<path style="fill:#93ebec; stroke:none;" d="M220 507L221 508L220 507z"/>
<path style="fill:#a3eeef; stroke:none;" d="M431 507L432 508L431 507z"/>
<path style="fill:#74e6e7; stroke:none;" d="M363 508L364 509L363 508z"/>
<path style="fill:#65e3e4; stroke:none;" d="M574 508L575 509L574 508z"/>
<path style="fill:#93ebec; stroke:none;" d="M221 509L222 510L221 509z"/>
<path style="fill:#a3eeef; stroke:none;" d="M362 510L363 511L362 510z"/>
<path style="fill:#65e3e4; stroke:none;" d="M432 510L433 511L432 510z"/>
<path style="fill:#55e0e1; stroke:none;" d="M362 511L363 512L362 511z"/>
<path style="fill:#65e3e4; stroke:none;" d="M572 511L573 512L572 511z"/>
<path style="fill:#74e6e7; stroke:none;" d="M433.333 512.667C433.278 512.722 433.222 513.778 433.667 513.333C433.722 513.278 433.778 512.222 433.333 512.667z"/>
<path style="fill:#55e0e1; stroke:none;" d="M571 512L572 513L571 512z"/>
<path style="fill:#a3eeef; stroke:none;" d="M225 513L226 514L225 513z"/>
<path style="fill:#74e6e7; stroke:none;" d="M361.333 513.667C361.278 513.722 361.222 514.778 361.667 514.333C361.722 514.278 361.778 513.222 361.333 513.667z"/>
<path style="fill:#55e0e1; stroke:none;" d="M226 514L227 515L226 514z"/>
<path style="fill:#84e9ea; stroke:none;" d="M568 514L569 515L568 514M228 515L229 516L228 515z"/>
<path style="fill:#a3eeef; stroke:none;" d="M566 515L567 516L566 515z"/>
<path style="fill:#84e9ea; stroke:none;" d="M230 516L231 517L230 516z"/>
<path style="fill:#a3eeef; stroke:none;" d="M564 516L565 517L564 516z"/>
<path style="fill:#65e3e4; stroke:none;" d="M232 517L233 518L232 517z"/>
<path style="fill:#b2f1f2; stroke:none;" d="M360.333 517.667C360.278 517.722 360.222 518.778 360.667 518.333C360.722 518.278 360.778 517.222 360.333 517.667z"/>
<path style="fill:#74e6e7; stroke:none;" d="M434.333 517.667C434.278 517.722 434.222 518.778 434.667 518.333C434.722 518.278 434.778 517.222 434.333 517.667z"/>
<path style="fill:#93ebec; stroke:none;" d="M562 517L563 518L562 517z"/>
<path style="fill:#55e0e1; stroke:none;" d="M234 518L235 519L234 518z"/>
<path style="fill:#b2f1f2; stroke:none;" d="M235 518L236 519L235 518z"/>
<path style="fill:#65e3e4; stroke:none;" d="M560 518L561 519L560 518z"/>
<path style="fill:#74e6e7; stroke:none;" d="M237 519L238 520L237 519z"/>
<path style="fill:#84e9ea; stroke:none;" d="M360.333 519.667C360.278 519.722 360.222 520.778 360.667 520.333C360.722 520.278 360.778 519.222 360.333 519.667z"/>
<path style="fill:#46dddf; stroke:none;" d="M434.333 519.667C434.278 519.722 434.222 520.778 434.667 520.333C434.722 520.278 434.778 519.222 434.333 519.667z"/>
<path style="fill:#a3eeef; stroke:none;" d="M557 519L558 520L557 519M240 520L241 521L240 520z"/>
<path style="fill:#b2f1f2; stroke:none;" d="M554 520L555 521L554 520z"/>
<path style="fill:#65e3e4; stroke:none;" d="M555 520L556 521L555 520M242 521L243 522L242 521z"/>
<path style="fill:#b2f1f2; stroke:none;" d="M243 521L244 522L243 521z"/>
<path style="fill:#46dddf; stroke:none;" d="M360 521L360 525C360.71 523.24 360.71 522.759 360 521z"/>
<path style="fill:#74e6e7; stroke:none;" d="M552 521L553 522L552 521M245 522L246 523L245 522z"/>
<path style="fill:#93ebec; stroke:none;" d="M549 522L550 523L549 522z"/>
<path style="fill:#a3eeef; stroke:none;" d="M248 523L249 524L248 523z"/>
<path style="fill:#b2f1f2; stroke:none;" d="M546 523L547 524L546 523z"/>
<path style="fill:#55e0e1; stroke:none;" d="M547 523L548 524L547 523z"/>
<path style="fill:#65e3e4; stroke:none;" d="M250 524L251 525L250 524z"/>
<path style="fill:#84e9ea; stroke:none;" d="M544 524L545 525L544 524z"/>
<path style="fill:#a3eeef; stroke:none;" d="M253 525L254 526L253 525z"/>
<path style="fill:#84e9ea; stroke:none;" d="M360 525L360 528C360.696 526.446 360.696 526.554 360 525z"/>
<path style="fill:#55e0e1; stroke:none;" d="M542 525L543 526L542 525z"/>
<path style="fill:#a3eeef; stroke:none;" d="M255 526L256 527L255 526z"/>
<path style="fill:#46dddf; stroke:none;" d="M434.333 526.667C434.278 526.722 434.222 527.778 434.667 527.333C434.722 527.278 434.778 526.222 434.333 526.667z"/>
<path style="fill:#a3eeef; stroke:none;" d="M257 527L258 528L257 527z"/>
<path style="fill:#d1f7f7; stroke:none;" d="M360.333 528.667C360.278 528.722 360.222 529.778 360.667 529.333C360.722 529.278 360.778 528.222 360.333 528.667z"/>
<path style="fill:#93ebec; stroke:none;" d="M434 528L434 531C434.696 529.446 434.696 529.554 434 528z"/>
<path style="fill:#74e6e7; stroke:none;" d="M536 528L537 529L536 528z"/>
<path style="fill:#a3eeef; stroke:none;" d="M260 529L261 530L260 529z"/>
<path style="fill:#65e3e4; stroke:none;" d="M261 530L262 531L261 530z"/>
<path style="fill:#a3eeef; stroke:none;" d="M533 530L534 531L533 530z"/>
<path style="fill:#65e3e4; stroke:none;" d="M262 531L263 532L262 531z"/>
<path style="fill:#74e6e7; stroke:none;" d="M361.333 531.667C361.278 531.722 361.222 532.778 361.667 532.333C361.722 532.278 361.778 531.222 361.333 531.667z"/>
<path style="fill:#a3eeef; stroke:none;" d="M532 531L533 532L532 531z"/>
<path style="fill:#b2f1f2; stroke:none;" d="M263 532L264 533L263 532z"/>
<path style="fill:#84e9ea; stroke:none;" d="M433 533L434 534L433 533M264 534L265 535L264 534z"/>
<path style="fill:#65e3e4; stroke:none;" d="M362 535L363 536L362 535z"/>
<path style="fill:#93ebec; stroke:none;" d="M265 536L266 537L265 536z"/>
<path style="fill:#b2f1f2; stroke:none;" d="M362 536L363 537L362 536z"/>
<path style="fill:#74e6e7; stroke:none;" d="M432 536L433 537L432 536M529 537L530 538L529 537z"/>
<path style="fill:#93ebec; stroke:none;" d="M363 538L364 539L363 538z"/>
<path style="fill:#55e0e1; stroke:none;" d="M431 538L432 539L431 538z"/>
<path style="fill:#84e9ea; stroke:none;" d="M266 539L267 540L266 539M364 540L365 541L364 540z"/>
<path style="fill:#36dadc; stroke:none;" d="M528.333 540.667C528.278 540.722 528.222 541.778 528.667 541.333C528.722 541.278 528.778 540.222 528.333 540.667z"/>
<path style="fill:#74e6e7; stroke:none;" d="M267 542L267 545C267.696 543.446 267.696 543.554 267 542z"/>
<path style="fill:#a3eeef; stroke:none;" d="M365 542L366 543L365 542z"/>
<path style="fill:#65e3e4; stroke:none;" d="M429 542L430 543L429 542z"/>
<path style="fill:#84e9ea; stroke:none;" d="M527.333 543.667C527.278 543.722 527.222 544.778 527.667 544.333C527.722 544.278 527.778 543.222 527.333 543.667z"/>
<path style="fill:#b2f1f2; stroke:none;" d="M428 544L429 545L428 544z"/>
<path style="fill:#a3eeef; stroke:none;" d="M367 545L368 546L367 545z"/>
<path style="fill:#65e3e4; stroke:none;" d="M427 545L428 546L427 545z"/>
<path style="fill:#b2f1f2; stroke:none;" d="M268.333 546.667C268.278 546.722 268.222 547.778 268.667 547.333C268.722 547.278 268.778 546.222 268.333 546.667z"/>
<path style="fill:#65e3e4; stroke:none;" d="M368 546L369 547L368 546z"/>
<path style="fill:#46dddf; stroke:none;" d="M268 548L268 552C268.71 550.24 268.71 549.76 268 548z"/>
<path style="fill:#b2f1f2; stroke:none;" d="M526.333 548.667C526.278 548.722 526.222 549.778 526.667 549.333C526.722 549.278 526.778 548.222 526.333 548.667z"/>
<path style="fill:#84e9ea; stroke:none;" d="M526.333 550.667C526.278 550.722 526.222 551.778 526.667 551.333C526.722 551.278 526.778 550.222 526.333 550.667z"/>
<path style="fill:#65e3e4; stroke:none;" d="M374 552L375 553L374 552z"/>
<path style="fill:#46dddf; stroke:none;" d="M526 552L526 558C526.951 555.715 526.951 554.285 526 552z"/>
<path style="fill:#a3eeef; stroke:none;" d="M375 553L376 554L375 553z"/>
<path style="fill:#74e6e7; stroke:none;" d="M419 553L420 554L419 553z"/>
<path style="fill:#a3eeef; stroke:none;" d="M378 555L379 556L378 555z"/>
<path style="fill:#84e9ea; stroke:none;" d="M416 555L417 556L416 555M380 556L381 557L380 556z"/>
<path style="fill:#65e3e4; stroke:none;" d="M414 556L415 557L414 556z"/>
<path style="fill:#84e9ea; stroke:none;" d="M382 557L383 558L382 557z"/>
<path style="fill:#65e3e4; stroke:none;" d="M412 557L413 558L412 557M268 558L268 561C268.696 559.446 268.696 559.554 268 558z"/>
<path style="fill:#b2f1f2; stroke:none;" d="M384 558L385 559L384 558z"/>
<path style="fill:#65e3e4; stroke:none;" d="M385 558L386 559L385 558z"/>
<path style="fill:#55e0e1; stroke:none;" d="M409 558L410 559L409 558z"/>
<path style="fill:#a3eeef; stroke:none;" d="M410 558L411 559L410 558M526.333 558.667C526.278 558.722 526.222 559.778 526.667 559.333C526.722 559.278 526.778 558.222 526.333 558.667z"/>
<path style="fill:#74e6e7; stroke:none;" d="M387 559C388.248 559.685 388.548 559.749 390 560C388.752 559.315 388.452 559.251 387 559z"/>
<path style="fill:#a3eeef; stroke:none;" d="M406.667 559.333C406.222 559.778 407.278 559.722 407.333 559.667C407.778 559.222 406.722 559.278 406.667 559.333z"/>
<path style="fill:#b2f1f2; stroke:none;" d="M391.667 560.333C391.222 560.778 392.278 560.722 392.333 560.667C392.778 560.222 391.722 560.278 391.667 560.333z"/>
<path style="fill:#84e9ea; stroke:none;" d="M393.667 560.333C393.222 560.778 394.278 560.722 394.333 560.667C394.778 560.222 393.722 560.278 393.667 560.333z"/>
<path style="fill:#46dddf; stroke:none;" d="M395 560C396.769 560.779 398.036 560.912 400 561C398.231 560.221 396.964 560.088 395 560z"/>
<path style="fill:#84e9ea; stroke:none;" d="M400 560C401.248 560.685 401.548 560.749 403 561C401.752 560.315 401.452 560.251 400 560z"/>
<path style="fill:#93ebec; stroke:none;" d="M527 562L528 563L527 562z"/>
<path style="fill:#74e6e7; stroke:none;" d="M266 564L267 565L266 564z"/>
<path style="fill:#b2f1f2; stroke:none;" d="M528 564L529 565L528 564z"/>
<path style="fill:#55e0e1; stroke:none;" d="M529 565L530 566L529 565z"/>
<path style="fill:#a3eeef; stroke:none;" d="M264 567L265 568L264 567M263 568L264 569L263 568M262 569L263 570L262 569M261 570L262 571L261 570M260 571L261 572L260 571M259 572L260 573L259 572z"/>
<path style="fill:#65e3e4; stroke:none;" d="M539 575L540 576L539 575z"/>
<path style="fill:#55e0e1; stroke:none;" d="M254 576L255 577L254 576z"/>
<path style="fill:#93ebec; stroke:none;" d="M540 576L541 577L540 576z"/>
<path style="fill:#74e6e7; stroke:none;" d="M253 577L254 578L253 577z"/>
<path style="fill:#a3eeef; stroke:none;" d="M541 577L542 578L541 577M252 578L253 579L252 578z"/>
<path style="fill:#55e0e1; stroke:none;" d="M545 580L546 581L545 580z"/>
<path style="fill:#65e3e4; stroke:none;" d="M546 581L547 582L546 581M247 582L248 583L247 582z"/>
<path style="fill:#a3eeef; stroke:none;" d="M547 582L548 583L547 582z"/>
<path style="fill:#65e3e4; stroke:none;" d="M246 583L247 584L246 583z"/>
<path style="fill:#a3eeef; stroke:none;" d="M548 583L549 584L548 583z"/>
<path style="fill:#93ebec; stroke:none;" d="M245 584L246 585L245 584z"/>
<path style="fill:#a3eeef; stroke:none;" d="M244 585L245 586L244 585M243 586L244 587L243 586M242 587L243 588L242 587z"/>
<path style="fill:#74e6e7; stroke:none;" d="M241 588L242 589L241 588z"/>
<path style="fill:#b2f1f2; stroke:none;" d="M553 588L554 589L553 588z"/>
<path style="fill:#65e3e4; stroke:none;" d="M240 589L241 590L240 589z"/>
<path style="fill:#a3eeef; stroke:none;" d="M554 589L555 590L554 589z"/>
<path style="fill:#65e3e4; stroke:none;" d="M555 590L556 591L555 590z"/>
<path style="fill:#84e9ea; stroke:none;" d="M238 592L239 593L238 592M237 594L238 595L237 594z"/>
<path style="fill:#55e0e1; stroke:none;" d="M236 596L236 601C236.83 598.969 236.83 598.031 236 596z"/>
<path style="fill:#a3eeef; stroke:none;" d="M558 596L558 601C558.83 598.97 558.83 598.03 558 596z"/>
<path style="fill:#36dadc; stroke:none;" d="M558.333 601.667C558.278 601.722 558.222 602.778 558.667 602.333C558.722 602.278 558.778 601.222 558.333 601.667z"/>
<path style="fill:#b2f1f2; stroke:none;" d="M237 603L238 604L237 603z"/>
<path style="fill:#65e3e4; stroke:none;" d="M237 604L238 605L237 604z"/>
<path style="fill:#a3eeef; stroke:none;" d="M557 604L558 605L557 604z"/>
<path style="fill:#55e0e1; stroke:none;" d="M557 605L558 606L557 605z"/>
<path style="fill:#b2f1f2; stroke:none;" d="M238 606L239 607L238 606z"/>
<path style="fill:#55e0e1; stroke:none;" d="M238 607L239 608L238 607z"/>
<path style="fill:#93ebec; stroke:none;" d="M556 607L557 608L556 607z"/>
<path style="fill:#65e3e4; stroke:none;" d="M239 609L240 610L239 609z"/>
<path style="fill:#a3eeef; stroke:none;" d="M555 609L556 610L555 609z"/>
<path style="fill:#65e3e4; stroke:none;" d="M240 611L241 612L240 611z"/>
<path style="fill:#b2f1f2; stroke:none;" d="M554 611L555 612L554 611z"/>
<path style="fill:#55e0e1; stroke:none;" d="M241 613L242 614L241 613z"/>
<path style="fill:#93ebec; stroke:none;" d="M553 613L554 614L553 613z"/>
<path style="fill:#65e3e4; stroke:none;" d="M552 615L553 616L552 615z"/>
<path style="fill:#74e6e7; stroke:none;" d="M243 616L244 617L243 616z"/>
<path style="fill:#84e9ea; stroke:none;" d="M293.667 616.333C293.222 616.778 294.278 616.722 294.333 616.667C294.778 616.222 293.722 616.278 293.667 616.333z"/>
<path style="fill:#46dddf; stroke:none;" d="M295 616C296.769 616.779 298.036 616.912 300 617C298.231 616.221 296.964 616.088 295 616z"/>
<path style="fill:#84e9ea; stroke:none;" d="M494.667 616.333C494.222 616.778 495.278 616.722 495.333 616.667C495.778 616.222 494.722 616.278 494.667 616.333z"/>
<path style="fill:#46dddf; stroke:none;" d="M496 616C497.506 616.683 498.315 616.826 500 617C498.494 616.317 497.685 616.174 496 616z"/>
<path style="fill:#93ebec; stroke:none;" d="M500 616C501.248 616.685 501.548 616.749 503 617C501.752 616.315 501.452 616.251 500 616z"/>
<path style="fill:#46dddf; stroke:none;" d="M289.667 617.333C289.222 617.778 290.278 617.722 290.333 617.667C290.778 617.222 289.722 617.278 289.667 617.333z"/>
<path style="fill:#55e0e1; stroke:none;" d="M302 617L303 618L302 617z"/>
<path style="fill:#84e9ea; stroke:none;" d="M492 617L493 618L492 617z"/>
<path style="fill:#b2f1f2; stroke:none;" d="M505.667 617.333C505.222 617.778 506.278 617.722 506.333 617.667C506.778 617.222 505.722 617.278 505.667 617.333M285 618L286 619L285 618z"/>
<path style="fill:#55e0e1; stroke:none;" d="M508 618L509 619L508 618z"/>
<path style="fill:#a3eeef; stroke:none;" d="M509 618L510 619L509 618z"/>
<path style="fill:#55e0e1; stroke:none;" d="M550 618L551 619L550 618z"/>
<path style="fill:#b2f1f2; stroke:none;" d="M282 619L283 620L282 619z"/>
<path style="fill:#65e3e4; stroke:none;" d="M283 619L284 620L283 619M306 619L307 620L306 619z"/>
<path style="fill:#74e6e7; stroke:none;" d="M489 619L490 620L489 619z"/>
<path style="fill:#55e0e1; stroke:none;" d="M511 619L512 620L511 619z"/>
<path style="fill:#a3eeef; stroke:none;" d="M512 619L513 620L512 619z"/>
<path style="fill:#84e9ea; stroke:none;" d="M549 619L550 620L549 619z"/>
<path style="fill:#65e3e4; stroke:none;" d="M246 620L247 621L246 620z"/>
<path style="fill:#74e6e7; stroke:none;" d="M280 620L281 621L280 620z"/>
<path style="fill:#b2f1f2; stroke:none;" d="M308 620L309 621L308 620z"/>
<path style="fill:#65e3e4; stroke:none;" d="M514 620L515 621L514 620z"/>
<path style="fill:#b2f1f2; stroke:none;" d="M515 620L516 621L515 620z"/>
<path style="fill:#a3eeef; stroke:none;" d="M548 620L549 621L548 620M247 621L248 622L247 621z"/>
<path style="fill:#93ebec; stroke:none;" d="M277 621L278 622L277 621z"/>
<path style="fill:#65e3e4; stroke:none;" d="M309 621L310 622L309 621z"/>
<path style="fill:#74e6e7; stroke:none;" d="M517 621L518 622L517 621z"/>
<path style="fill:#a3eeef; stroke:none;" d="M248 622L249 623L248 622M274 622L275 623L274 622M485 622L486 623L485 622z"/>
<path style="fill:#93ebec; stroke:none;" d="M520 622L521 623L520 622z"/>
<path style="fill:#74e6e7; stroke:none;" d="M249 623L250 624L249 623z"/>
<path style="fill:#a3eeef; stroke:none;" d="M271 623L272 624L271 623z"/>
<path style="fill:#55e0e1; stroke:none;" d="M272 623L273 624L272 623z"/>
<path style="fill:#a3eeef; stroke:none;" d="M312 623L313 624L312 623z"/>
<path style="fill:#74e6e7; stroke:none;" d="M484 623L485 624L484 623z"/>
<path style="fill:#93ebec; stroke:none;" d="M523 623L524 624L523 623z"/>
<path style="fill:#b2f1f2; stroke:none;" d="M545 623L546 624L545 623z"/>
<path style="fill:#55e0e1; stroke:none;" d="M250 624L251 625L250 624z"/>
<path style="fill:#a3eeef; stroke:none;" d="M268 624L269 625L268 624z"/>
<path style="fill:#55e0e1; stroke:none;" d="M269 624L270 625L269 624z"/>
<path style="fill:#84e9ea; stroke:none;" d="M313 624L314 625L313 624z"/>
<path style="fill:#65e3e4; stroke:none;" d="M483 624L484 625L483 624z"/>
<path style="fill:#d1f7f7; stroke:none;" d="M526.667 624.333C526.222 624.778 527.278 624.722 527.333 624.667C527.778 624.222 526.722 624.278 526.667 624.333z"/>
<path style="fill:#84e9ea; stroke:none;" d="M544 624L545 625L544 624M252 625L253 626L252 625z"/>
<path style="fill:#74e6e7; stroke:none;" d="M264.667 625.333C264.222 625.778 265.278 625.722 265.333 625.667C265.778 625.222 264.722 625.278 264.667 625.333z"/>
<path style="fill:#65e3e4; stroke:none;" d="M314 625L315 626L314 625z"/>
<path style="fill:#55e0e1; stroke:none;" d="M482 625L483 626L482 625z"/>
<path style="fill:#a3eeef; stroke:none;" d="M529.667 625.333C529.222 625.778 530.278 625.722 530.333 625.667C530.778 625.222 529.722 625.278 529.667 625.333M542 625L543 626L542 625z"/>
<path style="fill:#84e9ea; stroke:none;" d="M254 626C256.332 626.984 258.457 626.981 261 627C258.668 626.016 256.543 626.019 254 626z"/>
<path style="fill:#65e3e4; stroke:none;" d="M315 626L316 627L315 626z"/>
<path style="fill:#84e9ea; stroke:none;" d="M533 626C535.613 627.098 538.164 626.993 541 627C538.387 625.902 535.835 626.007 533 626z"/>
<path style="fill:#65e3e4; stroke:none;" d="M316 627L317 628L316 627M317 628L318 629L317 628M318 629L319 630L318 629z"/>
<path style="fill:#84e9ea; stroke:none;" d="M319 630L320 631L319 630z"/>
<path style="fill:#b2f1f2; stroke:none;" d="M320 631L321 632L320 631M322 634L323 635L322 634z"/>
<path style="fill:#55e0e1; stroke:none;" d="M473 634L474 635L473 634z"/>
<path style="fill:#65e3e4; stroke:none;" d="M323.333 637.667C323.278 637.722 323.222 638.778 323.667 638.333C323.722 638.278 323.778 637.222 323.333 637.667M473 638L473 641C473.696 639.446 473.696 639.554 473 638z"/>
<path style="fill:#36dadc; stroke:none;" d="M323.333 639.667C323.278 639.722 323.222 640.778 323.667 640.333C323.722 640.278 323.778 639.222 323.333 639.667z"/>
<path style="fill:#d1f7f7; stroke:none;" d="M473.333 641.667C473.278 641.722 473.222 642.778 473.667 642.333C473.722 642.278 473.778 641.222 473.333 641.667z"/>
<path style="fill:#46dddf; stroke:none;" d="M323 644L323 647C323.696 645.446 323.696 645.554 323 644M474.333 644.667C474.278 644.722 474.222 645.778 474.667 645.333C474.722 645.278 474.778 644.222 474.333 644.667z"/>
<path style="fill:#84e9ea; stroke:none;" d="M474.333 646.667C474.278 646.722 474.222 647.778 474.667 647.333C474.722 647.278 474.778 646.222 474.333 646.667M323.333 647.667C323.278 647.722 323.222 648.778 323.667 648.333C323.722 648.278 323.778 647.222 323.333 647.667z"/>
<path style="fill:#c2f4f4; stroke:none;" d="M474.333 648.667C474.278 648.722 474.222 649.778 474.667 649.333C474.722 649.278 474.778 648.222 474.333 648.667M323.333 649.667C323.278 649.722 323.222 650.778 323.667 650.333C323.722 650.278 323.778 649.222 323.333 649.667z"/>
<path style="fill:#46dddf; stroke:none;" d="M475 652L475 655C475.696 653.446 475.696 653.554 475 652z"/>
<path style="fill:#74e6e7; stroke:none;" d="M322 653L322 656C322.696 654.446 322.696 654.554 322 653z"/>
<path style="fill:#84e9ea; stroke:none;" d="M388.667 655.333C388.222 655.778 389.278 655.722 389.333 655.667C389.778 655.222 388.722 655.278 388.667 655.333z"/>
<path style="fill:#46dddf; stroke:none;" d="M390.667 655.333C390.222 655.778 391.278 655.722 391.333 655.667C391.778 655.222 390.722 655.278 390.667 655.333M403.667 655.333C403.222 655.778 404.278 655.722 404.333 655.667C404.778 655.222 403.722 655.278 403.667 655.333z"/>
<path style="fill:#a3eeef; stroke:none;" d="M405.667 655.333C405.222 655.778 406.278 655.722 406.333 655.667C406.778 655.222 405.722 655.278 405.667 655.333z"/>
<path style="fill:#84e9ea; stroke:none;" d="M475.333 655.667C475.278 655.722 475.222 656.778 475.667 656.333C475.722 656.278 475.778 655.222 475.333 655.667z"/>
<path style="fill:#b2f1f2; stroke:none;" d="M384 656L385 657L384 656z"/>
<path style="fill:#65e3e4; stroke:none;" d="M385 656L386 657L385 656z"/>
<path style="fill:#55e0e1; stroke:none;" d="M409 656L410 657L409 656z"/>
<path style="fill:#a3eeef; stroke:none;" d="M410 656L411 657L410 656M382 657L383 658L382 657z"/>
<path style="fill:#84e9ea; stroke:none;" d="M412 657L413 658L412 657z"/>
<path style="fill:#c2f4f4; stroke:none;" d="M475 657L475 661C475.71 659.24 475.71 658.76 475 657z"/>
<path style="fill:#a3eeef; stroke:none;" d="M415 659L416 660L415 659M321 660L321 663C321.696 661.446 321.696 661.554 321 660M416 660L417 661L416 660z"/>
<path style="fill:#74e6e7; stroke:none;" d="M376 663L377 664L376 663z"/>
<path style="fill:#b2f1f2; stroke:none;" d="M375 664L376 665L375 664z"/>
<path style="fill:#74e6e7; stroke:none;" d="M419 664L420 665L419 664M320 665L320 668C320.696 666.446 320.696 666.554 320 665z"/>
<path style="fill:#55e0e1; stroke:none;" d="M374 666L375 667L374 666z"/>
<path style="fill:#b2f1f2; stroke:none;" d="M373 667L374 668L373 667z"/>
<path style="fill:#74e6e7; stroke:none;" d="M421 667L422 668L421 667z"/>
<path style="fill:#c2f4f4; stroke:none;" d="M320 668L320 671C320.696 669.446 320.696 669.554 320 668z"/>
<path style="fill:#74e6e7; stroke:none;" d="M372 669L373 670L372 669z"/>
<path style="fill:#84e9ea; stroke:none;" d="M423 670L424 671L423 670z"/>
<path style="fill:#a3eeef; stroke:none;" d="M370 672L371 673L370 672z"/>
<path style="fill:#65e3e4; stroke:none;" d="M424 672L425 673L424 672z"/>
<path style="fill:#84e9ea; stroke:none;" d="M369 674L370 675L369 674z"/>
<path style="fill:#c2f4f4; stroke:none;" d="M475.333 674.667C475.278 674.722 475.222 675.778 475.667 675.333C475.722 675.278 475.778 674.222 475.333 674.667z"/>
<path style="fill:#a3eeef; stroke:none;" d="M426 675L427 676L426 675z"/>
<path style="fill:#74e6e7; stroke:none;" d="M475 676L475 679C475.696 677.446 475.696 677.554 475 676z"/>
<path style="fill:#84e9ea; stroke:none;" d="M427 677L428 678L427 677z"/>
<path style="fill:#a3eeef; stroke:none;" d="M320 678L320 681C320.696 679.446 320.696 679.554 320 678z"/>
<path style="fill:#84e9ea; stroke:none;" d="M366 679L367 680L366 679z"/>
<path style="fill:#b2f1f2; stroke:none;" d="M429 680L430 681L429 680M474 680L475 681L474 680z"/>
<path style="fill:#55e0e1; stroke:none;" d="M365 681L366 682L365 681z"/>
<path style="fill:#65e3e4; stroke:none;" d="M474 681L475 682L474 681z"/>
<path style="fill:#b2f1f2; stroke:none;" d="M321 682L322 683L321 682z"/>
<path style="fill:#74e6e7; stroke:none;" d="M430 682L431 683L430 682M473 683L474 684L473 683z"/>
<path style="fill:#65e3e4; stroke:none;" d="M322 684L323 685L322 684z"/>
<path style="fill:#74e6e7; stroke:none;" d="M363 684L364 685L363 684z"/>
<path style="fill:#a3eeef; stroke:none;" d="M472 684L473 685L472 684z"/>
<path style="fill:#93ebec; stroke:none;" d="M323 685L324 686L323 685z"/>
<path style="fill:#84e9ea; stroke:none;" d="M432 685L433 686L432 685z"/>
<path style="fill:#65e3e4; stroke:none;" d="M324 686L325 687L324 686z"/>
<path style="fill:#a3eeef; stroke:none;" d="M470 686L471 687L470 686z"/>
<path style="fill:#55e0e1; stroke:none;" d="M361 687L362 688L361 687z"/>
<path style="fill:#65e3e4; stroke:none;" d="M469 687L470 688L469 687z"/>
<path style="fill:#93ebec; stroke:none;" d="M327 688L328 689L327 688M360 688L361 689L360 688z"/>
<path style="fill:#55e0e1; stroke:none;" d="M434 688L435 689L434 688z"/>
<path style="fill:#b2f1f2; stroke:none;" d="M359 689L360 690L359 689z"/>
<path style="fill:#74e6e7; stroke:none;" d="M435 689L436 690L435 689z"/>
<path style="fill:#55e0e1; stroke:none;" d="M466 689L467 690L466 689z"/>
<path style="fill:#a3eeef; stroke:none;" d="M436 690L437 691L436 690z"/>
<path style="fill:#65e3e4; stroke:none;" d="M464 690L465 691L464 690z"/>
<path style="fill:#a3eeef; stroke:none;" d="M333 691L334 692L333 691M437 691L438 692L437 691z"/>
<path style="fill:#65e3e4; stroke:none;" d="M462 691L463 692L462 691z"/>
<path style="fill:#74e6e7; stroke:none;" d="M335 692L336 693L335 692z"/>
<path style="fill:#a3eeef; stroke:none;" d="M356 692L357 693L356 692z"/>
<path style="fill:#74e6e7; stroke:none;" d="M438 692L439 693L438 692z"/>
<path style="fill:#93ebec; stroke:none;" d="M459 692L460 693L459 692z"/>
<path style="fill:#74e6e7; stroke:none;" d="M338 693L339 694L338 693M355 693L356 694L355 693z"/>
<path style="fill:#93ebec; stroke:none;" d="M456 693L457 694L456 693z"/>
<path style="fill:#c2f4f4; stroke:none;" d="M342.667 694.333C342.222 694.778 343.278 694.722 343.333 694.667C343.778 694.222 342.722 694.278 342.667 694.333z"/>
<path style="fill:#74e6e7; stroke:none;" d="M353 694L354 695L353 694z"/>
<path style="fill:#65e3e4; stroke:none;" d="M441 694L442 695L441 694z"/>
<path style="fill:#b2f1f2; stroke:none;" d="M442 694L443 695L442 694z"/>
<path style="fill:#93ebec; stroke:none;" d="M451.667 694.333C451.222 694.778 452.278 694.722 452.333 694.667C452.778 694.222 451.722 694.278 451.667 694.333z"/>
<path style="fill:#46dddf; stroke:none;" d="M347 695C348.506 695.683 349.315 695.826 351 696C349.494 695.317 348.685 695.174 347 695M444 695C445.769 695.779 447.036 695.912 449 696C447.231 695.221 445.964 695.088 444 695z"/>
</svg>
