<?xml version="1.0" encoding="iso-8859-1"?>
<!-- Generator: Adobe Illustrator 18.0.0, SVG Export Plug-In . SVG Version: 6.00 Build 0)  -->
<!DOCTYPE svg PUBLIC "-//W3C//DTD SVG 1.1//EN" "http://www.w3.org/Graphics/SVG/1.1/DTD/svg11.dtd">
<svg version="1.1" id="Capa_1" xmlns="http://www.w3.org/2000/svg" xmlns:xlink="http://www.w3.org/1999/xlink" x="0px" y="0px"
	 viewBox="0 0 477.057 477.057" style="enable-background:new 0 0 477.057 477.057;" xml:space="preserve">
<g>
	<path style="fill:#FC60A8; stroke:none;" d="M167.151,285.641c-47.054-3.222-84.37-42.427-84.37-90.28c0-49.959,40.64-90.599,90.598-90.599
		c40.105,0,74.161,26.222,86.05,62.397c0.706-0.03,1.382-0.202,2.096-0.202c5.435,0,10.723,0.994,15.646,2.905
		c4.527-10.204,12.936-18.248,23.293-22.48c-2.026-5.365-4.294-10.606-6.957-15.623l20.693-20.693
		c2.664-2.663,4.162-6.282,4.162-10.055c0-3.773-1.498-7.392-4.162-10.055l-36.44-36.424c-5.551-5.552-14.558-5.552-20.111,0
		l-20.692,20.693c-7.485-3.968-15.366-7.291-23.605-9.822V36.199c0-7.85-6.367-14.217-14.217-14.217h-51.512
		c-7.849,0-14.216,6.367-14.216,14.217v29.203c-8.239,2.531-16.12,5.855-23.613,9.822L89.116,54.547
		c-5.552-5.552-14.558-5.552-20.11,0L32.572,90.971c-2.662,2.663-4.162,6.282-4.162,10.055c0,3.774,1.5,7.392,4.162,10.055
		L53.25,131.76c-3.968,7.493-7.291,15.366-9.821,23.605H14.216C6.367,155.364,0,161.731,0,169.582v51.526
		c0,7.851,6.367,14.218,14.216,14.218h29.204c2.53,8.237,5.854,16.118,9.821,23.611l-20.684,20.686
		c-5.553,5.551-5.553,14.558,0,20.11l36.432,36.434c5.551,5.551,14.558,5.551,20.11,0l20.677-20.678
		c7.493,3.975,15.382,7.305,23.629,9.837v29.203c0,7.851,6.367,14.218,14.216,14.218h33.302
		c-9.077-7.935-14.853-19.56-14.853-32.534C166.073,327.928,165.419,293.638,167.151,285.641z"/>
	<path style="fill:#FC60A8; stroke:none;" d="M230.953,179.599c1.748-1.748,3.673-3.231,5.645-4.635c-8.673-26.789-33.574-46.348-63.221-46.348
		c-36.804,0-66.744,29.941-66.744,66.746c0,38.606,33.45,71.412,75.441,65.868c2.966-2.415,6.219-4.489,9.761-6.057
		C179.257,222.622,205.71,204.848,230.953,179.599z"/>
	<path style="fill:#494368; stroke:none;" d="M337.455,260.095c-30.539,0-55.386,24.847-55.386,55.386s24.847,55.386,55.386,55.386
		c30.546,0,55.394-24.847,55.394-55.386S368.001,260.095,337.455,260.095z"/>
	<path style="fill:#494368; stroke:none;" d="M477.049,294.725c0-6.321-5.124-11.445-11.445-11.445h-23.511c-2.042-6.631-4.721-12.983-7.921-19.008l16.656-16.656
		c2.151-2.152,3.354-5.063,3.354-8.099c0-3.036-1.202-5.947-3.354-8.099l-29.327-29.327c-2.237-2.228-5.163-3.346-8.099-3.346
		c-2.927,0-5.855,1.118-8.091,3.346l-16.67,16.67c-6.027-3.198-12.37-5.869-19.002-7.903v-23.511
		c0-6.321-5.124-11.446-11.445-11.446h-41.471c-6.321,0-11.445,5.125-11.445,11.446v23.511c-6.631,2.034-12.982,4.705-19.016,7.903
		l-16.648-16.646c-2.236-2.238-5.164-3.355-8.099-3.355c-2.928,0-5.855,1.118-8.091,3.347l-29.327,29.327
		c-2.152,2.152-3.355,5.063-3.355,8.099c0,3.036,1.204,5.947,3.355,8.099l16.648,16.648c-3.2,6.025-5.871,12.369-7.913,19h-23.511
		c-6.321,0-11.445,5.124-11.445,11.445v41.487c0,6.321,5.124,11.445,11.445,11.445h23.503c2.042,6.631,4.713,12.983,7.913,19.008
		l-16.656,16.656c-4.465,4.465-4.465,11.717,0,16.19l29.327,29.327c2.151,2.152,5.063,3.354,8.099,3.354
		c3.036,0,5.947-1.202,8.099-3.354l16.64-16.64c6.041,3.199,12.393,5.878,19.032,7.913v23.519c0,6.319,5.124,11.445,11.445,11.445
		h41.471c6.321,0,11.445-5.125,11.445-11.445v-23.519c6.639-2.035,12.991-4.713,19.024-7.913l16.664,16.656
		c2.236,2.236,5.164,3.346,8.091,3.346c2.934,0,5.862-1.11,8.097-3.346l29.32-29.32c2.15-2.15,3.354-5.062,3.354-8.099
		c0-3.036-1.204-5.947-3.354-8.097l-16.656-16.656c3.199-6.033,5.879-12.385,7.913-19.024h23.511c3.036,0,5.955-1.204,8.099-3.354
		c2.15-2.144,3.354-5.063,3.354-8.099L477.049,294.725z M337.455,386.769c-39.305,0-71.288-31.982-71.288-71.288
		c0-39.305,31.982-71.288,71.288-71.288c39.313,0,71.296,31.982,71.296,71.288C408.751,354.786,376.768,386.769,337.455,386.769z"/>
</g>
<g>
</g>
<g>
</g>
<g>
</g>
<g>
</g>
<g>
</g>
<g>
</g>
<g>
</g>
<g>
</g>
<g>
</g>
<g>
</g>
<g>
</g>
<g>
</g>
<g>
</g>

</svg>
