<?xml version="1.0" standalone="yes"?>
<svg xmlns="http://www.w3.org/2000/svg" width="1600" height="1600">
<path style="fill:#ffffff; stroke:none;" d="M0 0L0 1600L1600 1600L1600 0L0 0z"/>
<path style="fill:#494368; stroke:none;" d="M550 550L850 550L850 600L449 600L369 600C358.027 600 346.926 598.341 336 599.089C314.582 600.556 293.393 608.173 276 620.745C242.665 644.842 223.624 685.132 213.63 724C202.98 765.416 200 807.423 200 850C200 891.893 202.877 933.201 213.127 974C222.998 1013.3 241.7 1053.74 275 1078.52C292.53 1091.57 314.208 1099.42 336 1100.91C349.155 1101.81 362.758 1100 376 1100L500 1100C500 1054.62 496.248 1007.26 507.884 963C530.523 876.896 608.052 809.675 697 801.17C718.205 799.142 739.696 800 761 800L863 800C892.201 800 922.381 800.684 951 793.87C989.535 784.695 1027.13 767.387 1042.54 728C1046.45 717.986 1048.8 706.692 1049.83 696C1050.81 685.827 1050 675.219 1050 665L1050 605L1050 424L1050 375C1050 364.977 1051.32 353.894 1049.67 344C1047.97 333.797 1042.02 323.987 1035.71 316C1011.97 285.923 972.933 272.107 937 263.127C891.891 251.853 845.237 250 799 250C754.903 250 710.09 251.665 667 262.13C629.237 271.301 586.778 285.338 562.756 318C557.295 325.426 552.45 333.888 550.518 343C549.297 348.756 550 355.144 550 361L550 395L550 550z"/>
<path style="fill:#ffffff; stroke:none;" d="M640 351.518C633.337 352.931 626.494 355.92 621 359.927C590.668 382.055 595.762 431.258 631 445.547C636.261 447.68 641.318 448.971 647 448.999C651.278 449.02 655.792 449.375 660 448.482C666.663 447.069 673.506 444.08 679 440.073C709.332 417.945 704.238 368.742 669 354.453C663.739 352.32 658.682 351.029 653 351.001C648.722 350.98 644.208 350.625 640 351.518z"/>
<path style="fill:#FC60A8; stroke:none;" d="M1100 550L1100 642C1100 660.598 1100.59 679.496 1098.83 698C1095.43 733.677 1081.51 768.785 1054.91 793.576C1043.82 803.915 1031.42 812.993 1018 820.11C967.95 846.648 911.292 849 856 849L758 849C735.986 849 713.822 848.057 692 851.272C616.675 862.368 557.38 926.545 550.17 1002C547.731 1027.53 550 1054.35 550 1080L550 1236L550 1278C550 1287.05 548.797 1297.09 550.468 1306C552.122 1314.83 557.113 1323.93 562.503 1331C586.211 1362.11 625.238 1377.18 662 1386.37C707.899 1397.85 754.938 1400 802 1400C846.142 1400 890.924 1398.09 934 1387.37C972.319 1377.84 1013.97 1363.16 1038.24 1330C1054.36 1307.98 1050 1280.78 1050 1255L1050 1100L750 1100L750 1050L1152 1050L1232 1050C1243.66 1050 1255.36 1051.71 1267 1050.91C1287.94 1049.47 1308.08 1041.48 1325 1029.25C1357.88 1005.49 1376.51 965.305 1386.37 927C1397.37 884.268 1400 840.908 1400 797C1400 752.751 1397.12 707.593 1384.02 665C1373.15 629.642 1356.49 594.167 1326 571.478C1308.95 558.787 1288.31 550.551 1267 549.089C1252.81 548.116 1238.26 550 1224 550L1100 550z"/>
<path style="fill:#ffffff; stroke:none;" d="M940 1201.52C933.337 1202.93 926.494 1205.92 921 1209.93C890.669 1232.06 895.762 1281.26 931 1295.55C936.261 1297.68 941.318 1298.97 947 1299C951.278 1299.02 955.792 1299.37 960 1298.48C966.663 1297.07 973.506 1294.08 979 1290.07C1009.33 1267.94 1004.24 1218.74 969 1204.45C963.739 1202.32 958.682 1201.03 953 1201C948.722 1200.98 944.208 1200.63 940 1201.52z"/>
</svg>
