<?xml version="1.0" standalone="yes"?>
<svg xmlns="http://www.w3.org/2000/svg" width="2200" height="2200">
<path style="fill:#FC60A8; stroke:none;" d="M1105 1342C1108.9 1355.55 1119.02 1368.54 1126.98 1380C1150.58 1414.03 1181.57 1442.19 1217 1463.45C1240.89 1477.78 1266.35 1488.25 1293 1496.28C1321.06 1504.73 1350.83 1508.76 1380 1510.04C1466.05 1513.81 1558.22 1498.08 1621.04 1433.99C1633.81 1420.96 1645.32 1406.28 1653.74 1390C1662.31 1373.45 1669.05 1356.17 1673.35 1338C1677.89 1318.74 1679 1298.69 1679 1279C1679 1219.58 1662 1164.11 1620.91 1120C1586.46 1083.01 1538.81 1056.28 1493 1035.86C1454.09 1018.52 1413.48 1003.58 1376 983.309C1356.21 972.605 1334.94 959.827 1324.37 939C1312.05 914.725 1313.42 882.739 1330.52 861C1345.45 842.024 1370.95 831.079 1395 831.079C1423.9 831.079 1452.33 841.514 1472.91 862.089C1484.59 873.767 1493.41 888.021 1502 902C1512.81 898.556 1522.46 889.806 1532 883.811C1554.46 869.698 1576.72 855.251 1599 840.858L1621 826.692C1623.6 825.02 1628.37 823.146 1629.18 819.815C1630 816.449 1626.69 812.629 1625.05 810C1620.16 802.178 1615.1 794.489 1609.71 787C1586.24 754.405 1554.14 726.323 1517 710.427C1485.25 696.84 1452.21 691.254 1418 688.911C1361.71 685.055 1302.84 694.985 1254 724.45C1219.12 745.49 1190.29 776.903 1173.31 814C1157.71 848.068 1152.37 885.88 1154.91 923C1155.61 933.271 1155.85 943.812 1157.44 954C1163.42 992.374 1180.17 1029.51 1205.43 1059C1256.69 1118.86 1334.83 1149.37 1406 1178.45C1413.12 1181.36 1419.97 1185.01 1427 1188.14C1466.47 1205.72 1517.8 1233.24 1514.91 1284C1514.42 1292.47 1512.2 1301.06 1509.3 1309C1500.13 1334.13 1475.13 1349.59 1451 1357.67C1396.36 1375.95 1332.84 1361.53 1289 1325.39C1274.81 1313.68 1262.27 1299.03 1251.72 1284C1248.73 1279.74 1245.92 1275.35 1243.05 1271C1241.78 1269.08 1240.42 1266.4 1237.9 1266C1234.29 1265.42 1229.91 1269.29 1227 1270.99L1203 1284.99C1170.39 1304.04 1137.22 1322.28 1105 1342z"/>
<path style="fill:#FC60A8; stroke:none;" d="M850 698L850 1092L850 1217C850 1242.07 852.047 1268.25 847.576 1293C844.495 1310.05 839.007 1328.09 826.91 1341C800.978 1368.66 750.406 1370.5 718 1354.19C696.115 1343.18 680.781 1322.3 668.192 1302C663.584 1294.57 658.465 1287.04 655 1279C648.534 1281.35 642.869 1285.46 637 1289C626.294 1295.45 615.717 1302.12 605 1308.55C576.671 1325.56 547.558 1341.76 520 1360C526.624 1375.91 536.155 1391.01 546.141 1405C560.927 1425.72 578.629 1444.22 599 1459.52C660.593 1505.79 742.171 1518.05 817 1507.27C833.927 1504.83 850.687 1502.08 867 1496.65C916.793 1480.06 960.379 1447.2 984.742 1400C1002.44 1365.72 1011.28 1327.37 1013.91 1289C1015.09 1271.83 1014 1254.21 1014 1237L1014 1150L1014 698L850 698z"/>
</svg>
