<?xml version="1.0" standalone="yes"?>
<svg xmlns="http://www.w3.org/2000/svg" width="1200" height="1200">
<path style="fill:#FC60A8; stroke:none;" d="M63 71.439C34.8318 75.8293 10.7424 94.2008 2.20525 122C-3.23432 139.713 0 161.601 0 180L0 293L0 882L0 1025C0 1039.8 -2.11287 1056.42 0.463735 1071C2.53485 1082.72 8.42244 1093.8 15.8079 1103C27.5993 1117.69 46.3358 1126.96 65 1128.83C77.4429 1130.07 90.4955 1129 103 1129L292 1129L869 1129L1051 1129L1107 1129C1119.76 1129 1132.47 1129.76 1145 1126.99C1169.89 1121.48 1191.3 1101.73 1198.08 1077C1203.08 1058.74 1200 1036.82 1200 1018L1200 903L1200 310L1200 171C1200 157.471 1201.89 142.331 1199.54 129C1197.19 115.755 1189.99 102.773 1180.83 93.0393C1157.03 67.761 1123.53 71 1092 71L900 71L336 71L153 71L94 71C83.8845 71 73.0071 69.8793 63 71.439z"/>
<path style="fill:#ffffff; stroke:none;" d="M810 121.428C802.875 122.451 796.083 124.61 790 128.548C784.966 131.807 780.62 136.064 777.221 141C754.285 174.306 783.028 220.46 823 214.7C829.318 213.789 835.601 211.286 841 207.934C875.551 186.487 866.961 129.87 826 122.095C820.681 121.085 815.382 120.656 810 121.428M942 121.428C934.875 122.451 928.082 124.61 922 128.548C917.289 131.598 913.407 135.531 910.043 140C885.246 172.949 914.773 220.497 955 214.7C961.318 213.789 967.601 211.286 973 207.934C1007.55 186.485 998.949 129.868 958 122.095C952.681 121.085 947.382 120.656 942 121.428M1074 121.428C1066.88 122.451 1060.08 124.61 1054 128.548C1049.29 131.595 1045.45 135.486 1042.16 140C1017.99 173.116 1046.17 220.584 1087 214.7C1093.32 213.789 1099.6 211.286 1105 207.934C1139.6 186.454 1131.08 129.891 1090 122.095C1084.68 121.085 1079.38 120.656 1074 121.428M73 265L73 1055L1127 1055L1127 265L73 265z"/>
<path style="fill:#FC60A8; stroke:none;" d="M631 439.637C620.314 442.675 617.148 452.473 614.001 462C607.099 482.892 603.764 504.81 597.989 526C589.609 556.753 583.256 588.077 575.525 619C563.386 667.554 551.083 716.194 540.011 765C536.741 779.414 532.005 794.129 532 809C531.997 819.744 534.891 828.164 546 831.895C548.951 832.886 551.917 832.984 555 832.999C559.252 833.02 563.829 833.435 568 832.471C579.438 829.827 583.29 819.057 586.14 809C592.043 788.176 596.487 766.982 601.745 746C621.929 665.472 640.491 584.544 660.627 504L663.475 492C667.613 475.45 676.234 447.883 654 440.363C650.699 439.247 647.457 439.018 644 439.001C639.783 438.98 635.097 438.473 631 439.637M502 784L502 729C502 723.98 504.086 712.857 500.972 708.702C498.578 705.508 491.593 704.237 488 702.8C476.687 698.275 465.314 693.922 454 689.4C427.064 678.633 399.937 668.326 373 657.551C356.483 650.944 339.316 642.103 322 638C335.588 631.644 350.075 627.117 364 621.551C393.854 609.618 424.069 598.556 454 586.797C465.293 582.36 476.708 578.234 488 573.797C491.707 572.341 498.663 571.058 500.972 567.581C504.025 562.986 502 552.358 502 547L502 493C494.017 494.197 486.382 498.682 479 501.85C465.651 507.578 452.285 513.266 439 519.14C396.464 537.946 353.718 556.341 311 574.719C293.99 582.037 276.851 589.083 260 596.769C254.4 599.323 244.854 601.153 240.603 605.699C237.64 608.869 239 616.006 239 620L239 655C239 659.066 237.686 666.039 240.028 669.582C243.373 674.641 254.618 676.966 260 679.281C277.025 686.606 293.952 694.147 311 701.421C353.429 719.526 395.679 738.067 438 756.424C459.279 765.655 480.372 775.609 502 784M698 494L698 547C698 552.358 695.975 562.986 699.028 567.581C701.337 571.058 708.293 572.341 712 573.797C723.627 578.365 735.373 582.635 747 587.203C790.446 604.272 835.343 619.092 878 638C835.235 657.046 790.477 672.209 747 689.6C735.378 694.249 723.636 698.594 712 703.204C708.39 704.634 701.334 706.22 699.028 709.51C695.941 713.913 698 724.787 698 730L698 784C705.001 782.752 711.463 778.73 718 776.012C732.762 769.872 747.374 763.322 762 756.86C803.567 738.495 845.312 720.507 887 702.424C904.342 694.902 921.799 687.611 939 679.769C944.935 677.064 954.878 675.135 959.397 670.301C962.491 666.991 961 659.184 961 655L961 623C961 618.477 961.996 612.581 960.682 608.225C959.24 603.443 949.152 601.193 945 599.421C929.307 592.725 913.68 585.88 898 579.15C854.654 560.546 811.146 542.202 768 523.14C753.043 516.532 738.032 510.011 723 503.579C714.976 500.145 706.642 495.488 698 494z"/>
</svg>
