<svg width="16" height="13" viewBox="0 0 16 13" fill="none" xmlns="http://www.w3.org/2000/svg">
    <path d="M0.184615 6.76923C0.0615385 6.64615 0 6.46154 0 6.33846C0 6.21538 0.0615385 6.03077 0.184615 5.90769L1.04615 5.04615C1.29231 4.8 1.66154 4.8 1.90769 5.04615L1.96923 5.10769L5.35385 8.73846C5.47692 8.86154 5.66154 8.86154 5.78462 8.73846L14.0308 0.184615H14.0923C14.3385 -0.0615385 14.7077 -0.0615385 14.9538 0.184615L15.8154 1.04615C16.0615 1.29231 16.0615 1.66154 15.8154 1.90769L5.96923 12.1231C5.84615 12.2462 5.72308 12.3077 5.53846 12.3077C5.35385 12.3077 5.23077 12.2462 5.10769 12.1231L0.307692 6.95385L0.184615 6.76923Z" fill="#4FC3F7"/>
</svg>
