<svg width="24" height="12" viewBox="0 0 24 12" xmlns="http://www.w3.org/2000/svg"><title>595FED3F-B817-4E53-A0EC-A3A43D8CF22C</title><path d="M5.119 11h13.838C21.19 11 23 8.76 23 6s-1.808-4.998-4.04-5H4.114a1.4 1.4 0 0 0-.12.005.663.663 0 0 0-.11-.005C2.291 1 1 2.597 1 4.566 1 6.534 2.29 8.13 3.884 8.13c.05 0 .1-.001.15-.004 0 .003.04.004.08.004H18.03c.95 0 1.724-.956 1.724-2.131 0-1.176-.774-2.131-1.729-2.131h-3.263" stroke="#00BFFF" fill="none" fill-rule="evenodd" stroke-linecap="round" stroke-linejoin="round"/></svg>