<svg width="16" height="16" viewBox="0 0 16 16" fill="none" xmlns="http://www.w3.org/2000/svg">
<path d="M5.9499 8C5.9499 6.95057 6.8131 6.09886 7.87669 6.09886C8.94027 6.09886 9.80347 6.95057 9.80347 8C9.80347 9.04943 8.94027 9.90114 7.87669 9.90114C6.8131 9.91635 5.9499 9.04943 5.9499 8ZM7.87669 0C4.08478 0 0.909441 2.55513 0.0154143 6.02281C0.0154143 6.05323 0 6.06844 0 6.09886C0 6.31179 0.169557 6.47909 0.385356 6.47909H3.65318C3.80732 6.47909 3.94605 6.38783 4.00771 6.25095C4.68593 4.80608 6.15029 3.80228 7.87669 3.80228C10.2197 3.80228 12.131 5.68821 12.131 8C12.131 10.3118 10.2197 12.1977 7.87669 12.1977C6.1657 12.1977 4.68593 11.1939 4.00771 9.74905C3.94605 9.61217 3.80732 9.52091 3.65318 9.52091H0.385356C0.169557 9.52091 0 9.68821 0 9.90114C0 9.93156 0 9.94677 0.0154143 9.97719C0.909441 13.4449 4.08478 16 7.87669 16C12.3622 16 16 12.4106 16 7.98479C16 3.57414 12.3622 0 7.87669 0Z" fill="#FC60A8"/>
</svg>
