<svg width="16" height="16" viewBox="0 0 16 16" fill="none" xmlns="http://www.w3.org/2000/svg">
<path d="M7.94454 0.00141032C7.80309 0.00875377 7.6645 0.0448973 7.53691 0.107721L1.97452 2.84686C1.83055 2.91772 1.70405 3.02082 1.60442 3.14851C1.50478 3.2762 1.43457 3.4252 1.399 3.58443L0.0267235 9.73723C-0.00496442 9.87899 -0.00851074 10.0258 0.0162944 10.169C0.0410996 10.3122 0.0937523 10.4488 0.171136 10.5708C0.1899 10.6007 0.21008 10.6295 0.231605 10.6574L4.08167 15.5909C4.18132 15.7185 4.30784 15.8216 4.45181 15.8924C4.59578 15.9633 4.75351 16 4.91329 16L11.0875 15.9985C11.2472 15.9987 11.4049 15.962 11.5489 15.8913C11.6928 15.8206 11.8194 15.7177 11.9191 15.5902L15.7677 10.6559C15.8674 10.5282 15.9377 10.3791 15.9733 10.2198C16.0089 10.0605 16.0089 9.89507 15.9733 9.73576L14.5989 3.58297C14.5633 3.42373 14.4931 3.27474 14.3935 3.14705C14.2939 3.01936 14.1674 2.91625 14.0234 2.84539L8.4603 0.107721C8.2998 0.0286939 8.12245 -0.00786115 7.94454 0.00141032V0.00141032Z" fill="#FC60A8"/>
<path d="M5.8645 2.6786e-07C5.68063 1.95063e-05 5.53155 0.170705 5.53157 0.381251C5.53157 0.384482 5.53221 0.38757 5.53228 0.390782C5.53201 0.41939 5.53067 0.453855 5.53157 0.478763C5.53595 0.6002 5.56164 0.693143 5.5771 0.805025C5.60511 1.04449 5.62857 1.24299 5.61409 1.42749C5.60001 1.49706 5.55029 1.56069 5.50596 1.60492L5.49813 1.75009C5.29833 1.76715 5.0972 1.79839 4.8963 1.8454C4.03182 2.04769 3.28752 2.50662 2.72085 3.12625C2.68408 3.1004 2.61975 3.05284 2.60063 3.03827C2.54118 3.04655 2.48111 3.06545 2.40286 3.01848C2.25387 2.91511 2.11817 2.77244 1.95397 2.60057C1.87873 2.51835 1.82425 2.44007 1.73486 2.36082C1.71456 2.34282 1.68358 2.31848 1.66088 2.29997C1.59099 2.24254 1.50856 2.2126 1.42896 2.20979C1.32661 2.20617 1.22809 2.24742 1.16361 2.33076C1.04899 2.47893 1.08569 2.7054 1.24542 2.83665C1.24704 2.83798 1.24877 2.83901 1.2504 2.84032C1.27235 2.85865 1.29923 2.88215 1.31941 2.8975C1.41426 2.96968 1.50091 3.00663 1.59543 3.06393C1.79455 3.19067 1.95962 3.29575 2.09056 3.42246C2.14169 3.47863 2.15062 3.57761 2.15743 3.62041L2.26414 3.71866C1.6929 4.60465 1.42852 5.69904 1.58476 6.81412L1.44532 6.85591C1.40858 6.90482 1.35665 6.98178 1.30233 7.00474C1.13103 7.06035 0.938231 7.08077 0.705474 7.10592C0.596197 7.11529 0.501909 7.1097 0.386058 7.13232C0.36056 7.13729 0.325033 7.14683 0.297134 7.15358C0.296164 7.15379 0.295258 7.15408 0.294288 7.15431C0.292768 7.15467 0.29077 7.15543 0.289309 7.15578C0.0930745 7.20464 -0.0329867 7.39053 0.00759666 7.57369C0.0481896 7.75688 0.239867 7.86829 0.437278 7.82443C0.438703 7.8241 0.440773 7.82404 0.442258 7.8237C0.444487 7.82317 0.446449 7.82206 0.448661 7.8215C0.47618 7.81528 0.510666 7.80835 0.534739 7.80171C0.648638 7.77028 0.731128 7.7241 0.833525 7.68366C1.05382 7.60223 1.23627 7.53421 1.41402 7.5077C1.48826 7.50171 1.56648 7.55491 1.60539 7.57735L1.75051 7.55169C2.08447 8.61879 2.78435 9.48129 3.67056 10.0225L3.61009 10.1721C3.63189 10.2301 3.65593 10.3087 3.63969 10.3661C3.57507 10.5388 3.46438 10.7211 3.33834 10.9243C3.27731 11.0182 3.21485 11.091 3.15978 11.1985C3.1466 11.2242 3.12982 11.2637 3.1171 11.2909C3.03153 11.4796 3.0943 11.6969 3.25867 11.7784C3.42407 11.8605 3.62938 11.774 3.71823 11.5849C3.71836 11.5846 3.71881 11.5844 3.71894 11.5842C3.71903 11.5839 3.71885 11.5836 3.71894 11.5834C3.73159 11.5566 3.74952 11.5214 3.7602 11.4962C3.80737 11.3848 3.82306 11.2894 3.85624 11.1816C3.94433 10.9536 3.99272 10.7143 4.11399 10.5652C4.1472 10.5244 4.20133 10.5087 4.25746 10.4932L4.33287 10.3524C5.10546 10.658 5.97025 10.7401 6.83413 10.5379C7.0312 10.4918 7.22146 10.4321 7.40538 10.3605C7.42657 10.3992 7.46596 10.4737 7.47652 10.4925C7.53356 10.5116 7.59581 10.5215 7.64654 10.5988C7.73727 10.7585 7.79931 10.9475 7.8749 11.1758C7.90807 11.2835 7.92447 11.3789 7.97165 11.4903C7.9824 11.5157 8.00024 11.5514 8.01291 11.5783C8.10157 11.768 8.30753 11.8548 8.47318 11.7726C8.63753 11.691 8.70036 11.4737 8.61475 11.285C8.60202 11.2578 8.58453 11.2183 8.57135 11.1926C8.51627 11.0852 8.45383 11.0131 8.39279 10.9192C8.26674 10.7159 8.16219 10.5471 8.09756 10.3744C8.07054 10.2853 8.10212 10.2299 8.12317 10.1721C8.11057 10.1572 8.08359 10.073 8.06769 10.0335C8.98868 9.47304 9.668 8.57837 9.98703 7.5451C10.0301 7.55207 10.105 7.56573 10.1293 7.57076C10.1794 7.53672 10.2254 7.49231 10.3157 7.49964C10.4934 7.52614 10.6759 7.59418 10.8962 7.6756C10.9986 7.71603 11.0811 7.76295 11.195 7.79438C11.219 7.80102 11.2535 7.80721 11.2811 7.81344C11.2833 7.814 11.2852 7.81511 11.2875 7.81564C11.2889 7.81598 11.291 7.81603 11.2924 7.81637C11.4899 7.86017 11.6816 7.74883 11.7221 7.56562C11.7627 7.38246 11.6367 7.19653 11.4404 7.14771C11.4119 7.14102 11.3714 7.12966 11.3437 7.12425C11.2278 7.10164 11.1335 7.10722 11.0242 7.09786C10.7915 7.07272 10.5987 7.05228 10.4274 6.99668C10.3575 6.96875 10.3078 6.8831 10.2837 6.84785L10.1492 6.80752C10.2189 6.28774 10.2001 5.74679 10.0795 5.20554C9.95775 4.65924 9.74258 4.1596 9.45561 3.71939C9.4901 3.68708 9.55524 3.62764 9.57371 3.61015C9.5791 3.54858 9.57447 3.48403 9.63631 3.41586C9.76723 3.28915 9.93232 3.18408 10.1314 3.05734C10.2259 3.00003 10.3133 2.96309 10.4082 2.89091C10.4296 2.87458 10.4589 2.84873 10.4814 2.83005C10.6411 2.69875 10.6779 2.4723 10.5633 2.32416C10.4486 2.17602 10.2264 2.16207 10.0667 2.29337C10.044 2.31192 10.0131 2.33613 9.99272 2.35422C9.90333 2.43347 9.84813 2.51175 9.7729 2.59397C9.60871 2.76585 9.47299 2.90924 9.32401 3.01261C9.25945 3.05135 9.16488 3.03795 9.12197 3.03534L8.99534 3.12845C8.27328 2.34811 7.29017 1.8492 6.23158 1.75229C6.22862 1.70657 6.22474 1.62392 6.22376 1.59905C6.18042 1.55631 6.12807 1.51983 6.11491 1.42749C6.10043 1.24299 6.12461 1.04449 6.15262 0.805025C6.16808 0.693143 6.19376 0.6002 6.19815 0.478763C6.19914 0.451157 6.19754 0.411099 6.19744 0.381251C6.19741 0.170705 6.04837 -1.89706e-05 5.8645 2.6786e-07H5.8645ZM5.44763 2.66142L5.34874 4.46136L5.34163 4.46503C5.335 4.62605 5.20641 4.75463 5.04853 4.75463C4.98386 4.75463 4.92417 4.73323 4.87567 4.69671L4.87282 4.69818L3.44078 3.65194C3.88091 3.20591 4.44386 2.87629 5.09264 2.72447C5.21115 2.69674 5.32961 2.67616 5.44763 2.66142ZM6.28209 2.66142C7.03955 2.75743 7.74005 3.11092 8.27684 3.65267L6.85405 4.69231L6.84907 4.69011C6.72279 4.78517 6.54486 4.76159 6.44642 4.63439C6.4061 4.58229 6.38494 4.52102 6.3824 4.45917L6.38097 4.45843L6.28209 2.66142ZM2.92147 4.32426L4.22901 5.5296L4.22759 5.53693C4.34561 5.64267 4.36301 5.82616 4.26458 5.95337C4.22426 6.00548 4.17029 6.04043 4.11234 6.05675L4.11092 6.06262L2.43487 6.56117C2.34957 5.75726 2.53341 4.97579 2.92147 4.32426ZM8.79829 4.32499C8.99257 4.64953 9.13968 5.012 9.22726 5.40496C9.31379 5.79321 9.3355 6.18076 9.29982 6.55531L7.61524 6.05528L7.61382 6.04795C7.46297 6.00546 7.37026 5.84732 7.40538 5.6887C7.41977 5.62372 7.45324 5.56875 7.49857 5.52813L7.49786 5.52446L8.79829 4.32499H8.79829ZM5.59631 5.62271H6.13199L6.46492 6.05162L6.3454 6.58683L5.8645 6.82512L5.38218 6.5861L5.26266 6.05088L5.59631 5.62271ZM7.31361 7.09052C7.33638 7.08934 7.35904 7.09145 7.38119 7.09566L7.38404 7.09199L9.11771 7.39406C8.86398 8.12871 8.37847 8.76516 7.72978 9.19107L7.0568 7.51576L7.05893 7.51283C6.99711 7.36479 7.05898 7.19118 7.20121 7.12058C7.23762 7.10251 7.27567 7.0925 7.31361 7.09052H7.31361ZM4.40188 7.09786C4.53418 7.09977 4.65285 7.19441 4.68359 7.3332C4.69798 7.39818 4.69098 7.46257 4.66723 7.51943L4.67221 7.52603L4.00634 9.18447C3.38379 8.77275 2.88793 8.15629 2.62268 7.39992L4.34141 7.09932L4.34425 7.10299C4.36348 7.09934 4.38298 7.09758 4.40188 7.09786V7.09786ZM5.85383 7.82443C5.89992 7.82269 5.94668 7.83243 5.99113 7.85449C6.0494 7.88341 6.09441 7.92894 6.12274 7.98353H6.12914L6.97641 9.56132C6.86645 9.59931 6.75341 9.63178 6.63779 9.65883C5.9898 9.81046 5.34388 9.76452 4.759 9.55912L5.60413 7.98426H5.60555C5.65627 7.88656 5.75244 7.82827 5.85383 7.82443Z" transform="translate(2.13477 2.09521)" fill="white" stroke="white" stroke-width="0.25"/>
</svg>
