<svg width="16" height="16" viewBox="0 0 16 16" fill="none" xmlns="http://www.w3.org/2000/svg">
<path d="M1.04309 10.1976C0.222977 5.66668 2.39039 1.29687 7.36497 0.715556C6.67897 -0.046146 5.74183 -0.0518696 5.31065 0.0407873C4.54933 0.292916 4.57323 0.804857 3.70965 1.46613C2.85114 1.97567 2.41996 1.58546 1.79457 2.11369C1.17051 2.63797 1.60596 3.84154 1.34423 4.07554C1.08442 4.5435 0.278498 4.96039 0.131793 5.55146C0.0105486 6.30737 0.460884 6.84733 0.443563 7.49528C0.495525 8.03523 -0.0737334 8.34056 0.00805445 8.77818C0.253037 9.49312 0.725231 9.92343 0.947835 10.1218C0.998882 10.1592 1.05279 10.2512 1.04309 10.1976Z" fill="#FC60A8"/>
<path d="M9.24495 3.20809C9.06321 3.20809 8.91586 3.05497 8.91586 2.86612C8.91586 2.67727 9.06321 2.52414 9.24495 2.52414C9.42668 2.52414 9.57404 2.67727 9.57404 2.86612C9.57404 3.05497 9.42668 3.20809 9.24495 3.20809ZM0.585236 9.97434C-0.202886 6.0365 2.2359 2.74614 6.95863 4.36601C9.72982 6.05065 13.2159 5.94096 13.373 4.85198C13.761 3.54651 11.6063 0.856282 8.3847 0.154336C1.99341 -1.14156 -1.45219 6.0365 0.585236 9.97434Z" transform="translate(0.649864 0.717484)" fill="#FC60A8"/>
<path d="M10.6752 6.88746C11.6242 6.9943 12.5251 6.75762 13.3599 6.05052C12.0987 7.51237 10.5217 8.24736 8.71221 8.44737C9.57616 9.21061 10.4093 9.55442 11.2064 9.40727C8.99163 10.0423 7.13609 9.3433 4.8789 7.00748C4.7607 7.63628 5.39981 8.61598 6.05854 9.24136C2.23644 7.51947 1.90136 2.15558 6.56202 0.836148C1.73069 -1.57593 -1.00115 3.11075 0.341041 6.95195C1.65429 9.91045 5.15384 12.188 8.98934 11.6871C10.8524 11.45 13.6344 10.1152 14.771 6.95195C13.97 7.69889 12.5381 8.34944 11.8992 8.39935C14.0617 7.2763 15.2291 5.368 14.9014 2.7598C14.4535 3.86798 13.8625 4.71906 13.1232 5.30358C14.6936 2.7598 14.4241 1.445 13.2617 0C14.0931 2.37582 13.0177 5.01265 10.6752 6.88746Z" transform="translate(1.04405 4.24355)" fill="#FC60A8"/>
<path d="M4.70074 2.61706C4.53665 2.5852 5.0727 2.8427 4.03633 2.5576C2.99996 2.27251 1.94472 1.99777 0.0142086 0C-0.103991 0.628807 0.535116 1.6085 1.19385 2.23388C2.9721 3.52261 1.76276 2.91987 4.47223 3.8932C4.68965 3.44348 4.70074 3.04386 4.70074 2.61706Z" transform="translate(5.90874 11.251)" fill="#FC60A8"/>
<path d="M2.7792 1.77766C2.7792 1.77766 3.01476 1.41635 3.10646 1.2534C3.21883 1.05372 3.39139 0.68975 3.39139 0.68975C3.39139 0.68975 1.57814 0.0750077 1.13315 0C-0.250125 0.373133 -0.255159 0.975352 0.518206 1.89713C0.604254 1.99973 2.7792 1.77766 2.7792 1.77766Z" transform="translate(4.38527 1.97072)" fill="#FC60A8"/>
</svg>
