<svg width="16" height="16" viewBox="0 0 16 16" fill="none" xmlns="http://www.w3.org/2000/svg">
<path d="M13.7773 9.19778C13.2191 9.20167 12.7339 9.38093 12.3277 9.64592C12.1787 9.25233 12.0296 8.90161 12.0033 8.64441C11.9741 8.34435 11.939 8.16119 11.9741 7.80268C12.0092 7.44416 12.167 6.93366 12.1641 6.89469C12.1611 6.85572 12.129 6.67257 11.8075 6.66867C11.486 6.66477 11.2084 6.75051 11.1763 6.86352C11.1441 6.97653 11.0827 7.23372 11.0418 7.49871C10.9863 7.88841 10.3989 9.27961 10.0628 10.0083C9.95467 9.72386 9.86115 9.47446 9.8407 9.27571C9.81147 8.97565 9.7764 8.79249 9.81147 8.43398C9.84654 8.07546 10.0044 7.56496 10.0014 7.52599C9.99851 7.48702 9.96636 7.30387 9.64489 7.29997C9.32342 7.29608 9.04579 7.38181 9.01364 7.49482C8.98149 7.60783 8.94642 7.87282 8.87921 8.13002C8.81199 8.38721 8.03169 10.7098 7.82712 11.3099C7.72191 11.6178 7.63131 11.8633 7.56702 12.0308C7.56702 12.0308 7.5641 12.0425 7.55533 12.062C7.4998 12.2062 7.46766 12.2841 7.46766 12.2841C7.46766 12.2841 7.46766 12.2841 7.46766 12.288C7.42382 12.3933 7.37706 12.4907 7.35368 12.4907C7.33615 12.4907 7.304 12.2101 7.35953 11.8282C7.47642 11.0215 7.75406 9.76673 7.75114 9.72386C7.75114 9.70048 7.80374 9.48225 7.56994 9.36924C7.34199 9.25623 7.26016 9.44328 7.2397 9.44328C7.21925 9.44328 7.20464 9.50953 7.20464 9.50953C7.20464 9.50953 7.45889 8.09884 6.71951 8.09884C6.25776 8.09884 5.62066 8.77301 5.30503 9.38093C5.10631 9.52512 4.68255 9.83297 4.22957 10.1642C4.05714 10.2928 3.87887 10.4214 3.71229 10.5422C3.7006 10.5266 3.68891 10.5071 3.67722 10.4916C2.78295 9.21726 1.12884 8.31707 1.19898 6.60632C1.22528 5.98281 1.38601 4.3461 4.37569 2.35867C6.8364 0.741444 8.79445 1.18959 9.13346 2.18331C9.61859 3.60179 8.0843 6.23611 5.54175 6.61801C4.5715 6.7622 4.06299 6.26339 3.9344 6.07634C3.79997 5.88149 3.77951 5.8698 3.72983 5.90877C3.648 5.96722 3.7006 6.14258 3.72983 6.2439C3.80581 6.5089 4.11852 6.97653 4.64748 7.20645C5.11507 7.40909 6.25191 7.5221 7.62839 6.81286C9.16853 6.01788 10.3726 3.80833 10.019 1.95729C9.66535 0.0789663 7.32738 -0.540645 5.11507 0.507628C3.79997 1.13114 2.37381 2.11316 1.34802 3.39135C0.129354 4.91116 -0.0635279 6.23221 0.0153786 6.78558C0.298857 8.74963 2.32997 10.0278 3.14241 10.9748C3.1015 11.0059 3.06351 11.0332 3.03136 11.0566C2.62514 11.3255 1.07623 12.4049 0.690467 13.5467C0.252098 14.8405 0.760606 15.768 1.09669 15.8927C2.14001 16.2785 3.21255 15.5848 3.78828 14.4391C4.364 13.2934 4.29386 11.8048 4.02792 11.1229C4.025 11.1151 4.02207 11.1073 4.01623 11.0995C4.12144 11.0176 4.22957 10.9319 4.33478 10.8501C4.54227 10.6864 4.74684 10.5344 4.92219 10.4097C4.82283 10.7721 4.74977 11.2047 4.7147 11.8282C4.67086 12.5608 4.89589 13.5117 5.19106 13.8858C5.32257 14.0494 5.47746 14.0533 5.57682 14.0533C5.92167 14.0533 6.07656 13.6714 6.24899 13.2194C6.45941 12.666 6.64937 12.023 6.64937 12.023C6.64937 12.023 6.41265 13.7611 7.05559 13.7611C7.28939 13.7611 7.52611 13.3558 7.63131 13.1493C7.63131 13.1532 7.63131 13.1532 7.63131 13.1532C7.63131 13.1532 7.63716 13.1415 7.64885 13.1142C7.67223 13.0635 7.68684 13.0324 7.68684 13.0324C7.68684 13.0324 7.68684 13.0285 7.68684 13.0246C7.78036 12.8063 7.99078 12.3114 8.30348 11.4892C8.70678 10.4292 9.09547 9.10425 9.09547 9.10425C9.09547 9.10425 9.13054 9.42769 9.25036 9.96547C9.3205 10.2811 9.46662 10.6279 9.58352 10.9631C9.49 11.1384 9.43155 11.2359 9.43155 11.2359C9.43155 11.2359 9.43155 11.2359 9.43447 11.2398C9.35849 11.3723 9.27666 11.5164 9.18606 11.6567C8.86752 12.1633 8.4876 12.744 8.43499 12.9115C8.37362 13.1103 8.38823 13.2545 8.50513 13.3714C8.58988 13.4571 8.74185 13.4688 8.89674 13.4571C9.18314 13.4298 9.38479 13.3363 9.48416 13.2779C9.63905 13.2038 9.82024 13.0908 9.98974 12.9232C10.3024 12.6154 10.4924 12.175 10.4749 11.5944C10.4661 11.2748 10.3872 10.9553 10.2908 10.6552C10.32 10.6007 10.3463 10.5461 10.3755 10.4916C10.8694 9.52901 11.2522 8.47295 11.2522 8.47295C11.2522 8.47295 11.2873 8.79639 11.4071 9.33417C11.4656 9.60695 11.5854 9.90312 11.6906 10.1915C11.2259 10.6942 10.9395 11.2787 10.8373 11.6606C10.6531 12.3699 10.7963 12.6894 11.0681 12.7635C11.1909 12.7985 11.3662 12.7206 11.4948 12.6466C11.6585 12.5764 11.8513 12.4556 12.0355 12.2763C12.3482 11.9685 12.6492 11.5398 12.6316 10.9592C12.6229 10.6942 12.5703 10.4331 12.4972 10.1798C12.8917 9.96157 13.4003 9.84077 14.049 9.94209C15.4401 10.1603 15.7148 11.3177 15.6622 11.8048C15.6096 12.2919 15.3174 12.5569 15.2209 12.6388C15.1245 12.7206 15.0924 12.7479 15.1011 12.8063C15.1128 12.8921 15.1596 12.8882 15.2414 12.8726C15.3554 12.8453 15.972 12.479 15.9983 11.5827C16.0422 10.437 15.2239 9.18608 13.7773 9.19778ZM3.04597 14.0222C2.58422 14.6924 1.94128 14.9457 1.66365 14.7314C1.36556 14.5015 1.48245 13.5117 2.04941 12.8024C2.39426 12.3699 2.83848 11.9685 3.13365 11.723C3.20086 11.6684 3.30023 11.5905 3.42005 11.4931C3.4405 11.4775 3.45219 11.4697 3.45219 11.4697C3.47557 11.4502 3.49895 11.4307 3.52233 11.4112C3.72983 12.4244 3.5311 13.3168 3.04597 14.0222ZM6.4068 10.9748C6.24607 11.497 5.90998 12.8336 5.70541 12.7596C5.53006 12.6972 5.42193 11.684 5.67034 10.6825C5.79601 10.1798 6.06195 9.57967 6.21684 9.34586C6.46817 8.97175 6.74581 8.84705 6.81303 8.99903C6.89778 9.19777 6.50617 10.6474 6.4068 10.9748ZM9.18022 12.744C9.113 12.7907 9.04871 12.8219 9.01948 12.7985C8.99903 12.7829 9.04871 12.7206 9.04871 12.7206C9.04871 12.7206 9.39648 12.2218 9.53384 11.9958C9.61274 11.8633 9.70626 11.7074 9.80563 11.532C9.80563 11.5476 9.80563 11.5671 9.80563 11.5827C9.80563 12.1789 9.3731 12.5803 9.18022 12.744ZM11.3195 12.0932C11.2698 12.0464 11.2785 11.8906 11.4451 11.4034C11.5094 11.2125 11.6614 10.8929 11.9215 10.5851C11.9507 10.7098 11.9712 10.8306 11.9682 10.9436C11.9653 11.6957 11.562 11.9763 11.3195 12.0932Z" fill="#FC60A8"/>
</svg>
