<?xml version="1.0" encoding="utf-8"?>
<!-- Svg Vector Icons : http://www.onlinewebfonts.com/icon -->
<!DOCTYPE svg PUBLIC "-//W3C//DTD SVG 1.1//EN" "http://www.w3.org/Graphics/SVG/1.1/DTD/svg11.dtd">
<svg version="1.1" xmlns="http://www.w3.org/2000/svg" xmlns:xlink="http://www.w3.org/1999/xlink" x="0px" y="0px" width="16px" height="16px" viewBox="0 0 1000 1000" enable-background="new 0 0 1000 1000" xml:space="preserve">
<metadata> Svg Vector Icons : http://www.onlinewebfonts.com/icon </metadata>
<g fill="#fc60a8" ><path d="M269.5,334.1l-59.8,52.8c-21.1-29.3-42.4-43.8-64.2-43.8c-10.6,0-19.2,2.9-26,8.5c-6.7,5.6-10.1,12.1-10.1,19.2c0,7.1,2.4,13.9,7.3,20.2c6.5,8.5,26.3,26.7,59.2,54.6c30.8,25.7,49.6,42,56.1,48.8c16.4,16.6,28,32.3,34.8,47.5c6.8,15.1,10.2,31.6,10.2,49.5c0,34.8-12.1,63.6-36.1,86.3c-24.1,22.7-55.5,34.1-94.2,34.1c-30.2,0-56.6-7.4-79.1-22.2C45.2,674.7,26,651.4,10,619.7l67.9-41c20.4,37.5,43.9,56.3,70.5,56.3c13.9,0,25.6-4,35-12.2c9.5-8,14.2-17.4,14.2-28c0-9.7-3.5-19.2-10.7-28.9c-7.2-9.7-22.9-24.3-47.1-44.1c-46.2-37.7-76.2-66.8-89.7-87.3C36.7,414,30,393.5,30,373.1c0-29.5,11.2-54.7,33.7-75.8c22.4-21.1,50.1-31.6,83.1-31.6c21.2,0,41.3,4.9,60.6,14.7C226.4,290.2,247.2,308.1,269.5,334.1z"/><path d="M688.7,638.9l73.9,95.5h-95.7l-37.5-48.3c-31,17-65.7,25.5-103.7,25.5c-63.7,0-116.8-22-159-65.9c-42.2-43.9-63.3-96.4-63.3-157.1c0-40.6,9.9-77.9,29.5-111.9c19.6-34,46.6-61,81.1-81c34.4-20,71.3-30.1,110.7-30.1c60.3,0,112,21.7,155.2,65.3c43.3,43.4,64.9,96.5,64.9,159.1C744.8,547.5,726.1,597.1,688.7,638.9z M638.3,573.6c17.1-25.4,25.6-53.5,25.6-84.3c0-40.2-13.6-74.4-40.8-102.5c-27.2-28-60-42.1-98.6-42.1c-39.7,0-72.9,13.7-99.7,41c-26.8,27.4-40.2,62-40.2,104.2c0,47,16.8,84.1,50.6,111.4c26.4,21.3,56.4,32.1,90,32.1c19.2,0,37.4-3.7,54.4-11.3l-76-97.8H600L638.3,573.6z"/><path d="M791.4,276.3h80.8v347.5H990v77H791.4V276.3z"/></g>
</svg>